<svg xmlns="http://www.w3.org/2000/svg" xmlns:xlink="http://www.w3.org/1999/xlink" width="1080" zoomAndPan="magnify" viewBox="0 0 810 809.999993" height="1080" preserveAspectRatio="xMidYMid meet" version="1.0"><defs><g/><clipPath id="6d46947e5a"><path d="M 471 131 L 511 131 L 511 171 L 471 171 Z M 471 131 " clip-rule="nonzero"/></clipPath><clipPath id="1ad32dfb8b"><path d="M 510.589844 151.1875 C 510.589844 140.429688 501.875 131.746094 491.160156 131.746094 C 480.445312 131.746094 471.71875 140.429688 471.71875 151.1875 C 471.71875 161.902344 480.445312 170.585938 491.160156 170.585938 C 501.875 170.585938 510.589844 161.902344 510.589844 151.1875 Z M 510.589844 151.1875 " clip-rule="nonzero"/></clipPath><linearGradient x1="376.646762" gradientTransform="matrix(0.606742, 0, 0, 0.606742, 243.000001, 75.750019)" y1="155.982776" x2="440.683254" gradientUnits="userSpaceOnUse" y2="91.946555" id="b2071a4ea7"><stop stop-opacity="1" stop-color="rgb(82.060242%, 0%, 41.996765%)" offset="0"/><stop stop-opacity="1" stop-color="rgb(82.00531%, 0%, 42.158508%)" offset="0.015625"/><stop stop-opacity="1" stop-color="rgb(81.896973%, 0%, 42.483521%)" offset="0.03125"/><stop stop-opacity="1" stop-color="rgb(81.788635%, 0%, 42.808533%)" offset="0.046875"/><stop stop-opacity="1" stop-color="rgb(81.678772%, 0%, 43.133545%)" offset="0.0625"/><stop stop-opacity="1" stop-color="rgb(81.570435%, 0%, 43.458557%)" offset="0.078125"/><stop stop-opacity="1" stop-color="rgb(81.462097%, 0%, 43.783569%)" offset="0.09375"/><stop stop-opacity="1" stop-color="rgb(81.35376%, 0%, 44.108582%)" offset="0.109375"/><stop stop-opacity="1" stop-color="rgb(81.245422%, 0%, 44.433594%)" offset="0.125"/><stop stop-opacity="1" stop-color="rgb(81.135559%, 0%, 44.758606%)" offset="0.140625"/><stop stop-opacity="1" stop-color="rgb(81.027222%, 0%, 45.083618%)" offset="0.15625"/><stop stop-opacity="1" stop-color="rgb(80.918884%, 0%, 45.40863%)" offset="0.171875"/><stop stop-opacity="1" stop-color="rgb(80.810547%, 0%, 45.733643%)" offset="0.1875"/><stop stop-opacity="1" stop-color="rgb(80.702209%, 0%, 46.058655%)" offset="0.203125"/><stop stop-opacity="1" stop-color="rgb(80.592346%, 0%, 46.383667%)" offset="0.21875"/><stop stop-opacity="1" stop-color="rgb(80.484009%, 0%, 46.708679%)" offset="0.234375"/><stop stop-opacity="1" stop-color="rgb(80.375671%, 0%, 47.033691%)" offset="0.25"/><stop stop-opacity="1" stop-color="rgb(80.267334%, 0%, 47.358704%)" offset="0.265625"/><stop stop-opacity="1" stop-color="rgb(80.158997%, 0%, 47.683716%)" offset="0.28125"/><stop stop-opacity="1" stop-color="rgb(80.049133%, 0%, 48.008728%)" offset="0.296875"/><stop stop-opacity="1" stop-color="rgb(79.940796%, 0%, 48.33374%)" offset="0.3125"/><stop stop-opacity="1" stop-color="rgb(79.832458%, 0%, 48.658752%)" offset="0.328125"/><stop stop-opacity="1" stop-color="rgb(79.724121%, 0%, 48.983765%)" offset="0.34375"/><stop stop-opacity="1" stop-color="rgb(79.615784%, 0%, 49.308777%)" offset="0.359375"/><stop stop-opacity="1" stop-color="rgb(79.50592%, 0%, 49.633789%)" offset="0.375"/><stop stop-opacity="1" stop-color="rgb(79.397583%, 0%, 49.958801%)" offset="0.390625"/><stop stop-opacity="1" stop-color="rgb(79.289246%, 0%, 50.283813%)" offset="0.40625"/><stop stop-opacity="1" stop-color="rgb(79.180908%, 0%, 50.608826%)" offset="0.421875"/><stop stop-opacity="1" stop-color="rgb(79.072571%, 0%, 50.933838%)" offset="0.4375"/><stop stop-opacity="1" stop-color="rgb(78.964233%, 0%, 51.25885%)" offset="0.453125"/><stop stop-opacity="1" stop-color="rgb(78.85437%, 0%, 51.583862%)" offset="0.46875"/><stop stop-opacity="1" stop-color="rgb(78.746033%, 0%, 51.908875%)" offset="0.484375"/><stop stop-opacity="1" stop-color="rgb(78.637695%, 0%, 52.233887%)" offset="0.499791"/><stop stop-opacity="1" stop-color="rgb(78.58429%, 0%, 52.397156%)" offset="0.5"/><stop stop-opacity="1" stop-color="rgb(78.529358%, 0%, 52.558899%)" offset="0.500209"/><stop stop-opacity="1" stop-color="rgb(78.475952%, 0%, 52.722168%)" offset="0.515625"/><stop stop-opacity="1" stop-color="rgb(78.421021%, 0%, 52.883911%)" offset="0.53125"/><stop stop-opacity="1" stop-color="rgb(78.311157%, 0%, 53.208923%)" offset="0.546875"/><stop stop-opacity="1" stop-color="rgb(78.20282%, 0%, 53.533936%)" offset="0.5625"/><stop stop-opacity="1" stop-color="rgb(78.094482%, 0%, 53.858948%)" offset="0.578125"/><stop stop-opacity="1" stop-color="rgb(77.986145%, 0%, 54.18396%)" offset="0.59375"/><stop stop-opacity="1" stop-color="rgb(77.877808%, 0%, 54.508972%)" offset="0.609375"/><stop stop-opacity="1" stop-color="rgb(77.767944%, 0%, 54.833984%)" offset="0.625"/><stop stop-opacity="1" stop-color="rgb(77.659607%, 0%, 55.158997%)" offset="0.640625"/><stop stop-opacity="1" stop-color="rgb(77.55127%, 0%, 55.484009%)" offset="0.65625"/><stop stop-opacity="1" stop-color="rgb(77.442932%, 0%, 55.809021%)" offset="0.671875"/><stop stop-opacity="1" stop-color="rgb(77.334595%, 0%, 56.134033%)" offset="0.6875"/><stop stop-opacity="1" stop-color="rgb(77.224731%, 0%, 56.459045%)" offset="0.703125"/><stop stop-opacity="1" stop-color="rgb(77.116394%, 0%, 56.784058%)" offset="0.71875"/><stop stop-opacity="1" stop-color="rgb(77.008057%, 0%, 57.10907%)" offset="0.734375"/><stop stop-opacity="1" stop-color="rgb(76.899719%, 0%, 57.434082%)" offset="0.75"/><stop stop-opacity="1" stop-color="rgb(76.791382%, 0%, 57.759094%)" offset="0.765625"/><stop stop-opacity="1" stop-color="rgb(76.681519%, 0%, 58.084106%)" offset="0.78125"/><stop stop-opacity="1" stop-color="rgb(76.573181%, 0%, 58.409119%)" offset="0.796875"/><stop stop-opacity="1" stop-color="rgb(76.464844%, 0%, 58.734131%)" offset="0.8125"/><stop stop-opacity="1" stop-color="rgb(76.356506%, 0%, 59.059143%)" offset="0.828125"/><stop stop-opacity="1" stop-color="rgb(76.248169%, 0%, 59.384155%)" offset="0.84375"/><stop stop-opacity="1" stop-color="rgb(76.138306%, 0%, 59.709167%)" offset="0.859375"/><stop stop-opacity="1" stop-color="rgb(76.029968%, 0%, 60.032654%)" offset="0.875"/><stop stop-opacity="1" stop-color="rgb(75.921631%, 0%, 60.357666%)" offset="0.890625"/><stop stop-opacity="1" stop-color="rgb(75.813293%, 0%, 60.682678%)" offset="0.90625"/><stop stop-opacity="1" stop-color="rgb(75.704956%, 0%, 61.00769%)" offset="0.921875"/><stop stop-opacity="1" stop-color="rgb(75.595093%, 0%, 61.332703%)" offset="0.9375"/><stop stop-opacity="1" stop-color="rgb(75.486755%, 0%, 61.657715%)" offset="0.953125"/><stop stop-opacity="1" stop-color="rgb(75.378418%, 0%, 61.982727%)" offset="0.96875"/><stop stop-opacity="1" stop-color="rgb(75.270081%, 0%, 62.307739%)" offset="0.984375"/><stop stop-opacity="1" stop-color="rgb(75.161743%, 0%, 62.632751%)" offset="1"/></linearGradient><clipPath id="a1cf2682b3"><path d="M 243 75.75 L 567 75.75 L 567 399.75 L 243 399.75 Z M 243 75.75 " clip-rule="nonzero"/></clipPath><clipPath id="5577f02f0f"><path d="M 536.480469 302.917969 C 535.761719 318.695312 533.125 327.269531 530.933594 332.960938 C 527.988281 340.507812 524.480469 345.90625 518.785156 351.566406 C 513.15625 357.230469 507.757812 360.730469 500.210938 363.640625 C 494.519531 365.867188 485.914062 368.511719 470.136719 369.261719 C 453.082031 370.015625 448.027344 370.175781 404.777344 370.175781 C 361.566406 370.175781 356.472656 370.015625 339.417969 369.261719 C 323.640625 368.511719 315.078125 365.867188 309.382812 363.640625 C 301.796875 360.730469 296.4375 357.230469 290.777344 351.566406 C 285.074219 345.90625 281.566406 340.507812 278.664062 332.960938 C 276.472656 327.269531 273.792969 318.695312 273.113281 302.917969 C 272.28125 285.863281 272.128906 280.730469 272.128906 237.566406 C 272.128906 194.316406 272.28125 189.222656 273.113281 172.167969 C 273.792969 156.390625 276.472656 147.828125 278.664062 142.085938 C 281.566406 134.546875 285.074219 129.179688 290.777344 123.519531 C 296.4375 117.867188 301.796875 114.355469 309.382812 111.414062 C 315.078125 109.183594 323.640625 106.574219 339.417969 105.824219 C 356.472656 105.070312 361.566406 104.878906 404.777344 104.878906 C 448.027344 104.878906 453.082031 105.070312 470.136719 105.824219 C 485.914062 106.574219 494.519531 109.183594 500.210938 111.414062 C 507.757812 114.355469 513.15625 117.867188 518.785156 123.519531 C 524.480469 129.179688 527.988281 134.546875 530.933594 142.085938 C 533.125 147.828125 535.761719 156.390625 536.480469 172.167969 C 537.273438 189.222656 537.464844 194.316406 537.464844 237.566406 C 537.464844 280.730469 537.273438 285.863281 536.480469 302.917969 Z M 565.613281 170.839844 C 564.820312 153.601562 562.101562 141.820312 558.0625 131.5625 C 553.953125 120.917969 548.445312 111.898438 539.425781 102.878906 C 530.445312 93.902344 521.425781 88.390625 510.78125 84.234375 C 500.484375 80.234375 488.746094 77.484375 471.496094 76.734375 C 454.25 75.902344 448.742188 75.75 404.777344 75.75 C 360.855469 75.75 355.304688 75.902344 338.058594 76.734375 C 320.851562 77.484375 309.121094 80.234375 298.773438 84.234375 C 288.171875 88.390625 279.152344 93.902344 270.171875 102.878906 C 261.152344 111.898438 255.640625 120.917969 251.492188 131.5625 C 247.492188 141.820312 244.773438 153.601562 243.941406 170.839844 C 243.191406 188.085938 243 193.605469 243 237.566406 C 243 281.492188 243.191406 287 243.941406 304.246094 C 244.773438 321.453125 247.492188 333.226562 251.492188 343.53125 C 255.640625 354.136719 261.152344 363.195312 270.171875 372.175781 C 279.152344 381.152344 288.171875 386.703125 298.773438 390.851562 C 309.121094 394.851562 320.851562 397.570312 338.058594 398.363281 C 355.304688 399.152344 360.855469 399.34375 404.777344 399.34375 C 448.742188 399.34375 454.25 399.152344 471.496094 398.363281 C 488.746094 397.570312 500.484375 394.851562 510.78125 390.851562 C 521.425781 386.703125 530.445312 381.152344 539.425781 372.175781 C 548.445312 363.195312 553.953125 354.136719 558.0625 343.53125 C 562.101562 333.226562 564.820312 321.453125 565.613281 304.246094 C 566.402344 287 566.59375 281.492188 566.59375 237.566406 C 566.59375 193.605469 566.402344 188.085938 565.613281 170.839844 Z M 565.613281 170.839844 " clip-rule="nonzero"/></clipPath><linearGradient x1="-0.0195157" gradientTransform="matrix(0.606742, 0, 0, 0.606742, 243.000001, 75.750019)" y1="533.313485" x2="533.313491" gradientUnits="userSpaceOnUse" y2="-0.0194871" id="c6d4c4b612"><stop stop-opacity="1" stop-color="rgb(100%, 83.499146%, 12.89978%)" offset="0"/><stop stop-opacity="1" stop-color="rgb(100%, 83.499146%, 12.89978%)" offset="0.03125"/><stop stop-opacity="1" stop-color="rgb(100%, 83.499146%, 12.89978%)" offset="0.046875"/><stop stop-opacity="1" stop-color="rgb(99.998474%, 83.477783%, 12.895203%)" offset="0.0546875"/><stop stop-opacity="1" stop-color="rgb(99.958801%, 82.659912%, 12.768555%)" offset="0.0585938"/><stop stop-opacity="1" stop-color="rgb(99.92218%, 81.864929%, 12.646484%)" offset="0.0625"/><stop stop-opacity="1" stop-color="rgb(99.885559%, 81.06842%, 12.522888%)" offset="0.0664062"/><stop stop-opacity="1" stop-color="rgb(99.848938%, 80.271912%, 12.400818%)" offset="0.0703125"/><stop stop-opacity="1" stop-color="rgb(99.810791%, 79.475403%, 12.277222%)" offset="0.0742187"/><stop stop-opacity="1" stop-color="rgb(99.77417%, 78.68042%, 12.155151%)" offset="0.078125"/><stop stop-opacity="1" stop-color="rgb(99.736023%, 77.883911%, 12.031555%)" offset="0.0820312"/><stop stop-opacity="1" stop-color="rgb(99.699402%, 77.087402%, 11.909485%)" offset="0.0859375"/><stop stop-opacity="1" stop-color="rgb(99.662781%, 76.290894%, 11.785889%)" offset="0.0898437"/><stop stop-opacity="1" stop-color="rgb(99.62616%, 75.495911%, 11.662292%)" offset="0.09375"/><stop stop-opacity="1" stop-color="rgb(99.588013%, 74.699402%, 11.538696%)" offset="0.0976562"/><stop stop-opacity="1" stop-color="rgb(99.551392%, 73.902893%, 11.416626%)" offset="0.101562"/><stop stop-opacity="1" stop-color="rgb(99.513245%, 73.106384%, 11.29303%)" offset="0.105469"/><stop stop-opacity="1" stop-color="rgb(99.476624%, 72.311401%, 11.170959%)" offset="0.109375"/><stop stop-opacity="1" stop-color="rgb(99.438477%, 71.514893%, 11.047363%)" offset="0.113281"/><stop stop-opacity="1" stop-color="rgb(99.401855%, 70.718384%, 10.925293%)" offset="0.117188"/><stop stop-opacity="1" stop-color="rgb(99.365234%, 69.921875%, 10.801697%)" offset="0.121094"/><stop stop-opacity="1" stop-color="rgb(99.328613%, 69.126892%, 10.678101%)" offset="0.125"/><stop stop-opacity="1" stop-color="rgb(99.290466%, 68.330383%, 10.554504%)" offset="0.128906"/><stop stop-opacity="1" stop-color="rgb(99.253845%, 67.533875%, 10.432434%)" offset="0.132812"/><stop stop-opacity="1" stop-color="rgb(99.215698%, 66.737366%, 10.308838%)" offset="0.136719"/><stop stop-opacity="1" stop-color="rgb(99.179077%, 65.942383%, 10.186768%)" offset="0.140625"/><stop stop-opacity="1" stop-color="rgb(99.14093%, 65.145874%, 10.063171%)" offset="0.144531"/><stop stop-opacity="1" stop-color="rgb(99.104309%, 64.349365%, 9.941101%)" offset="0.148437"/><stop stop-opacity="1" stop-color="rgb(99.067688%, 63.552856%, 9.817505%)" offset="0.152344"/><stop stop-opacity="1" stop-color="rgb(99.031067%, 62.757874%, 9.695435%)" offset="0.15625"/><stop stop-opacity="1" stop-color="rgb(98.99292%, 61.961365%, 9.571838%)" offset="0.160156"/><stop stop-opacity="1" stop-color="rgb(98.956299%, 61.164856%, 9.448242%)" offset="0.164062"/><stop stop-opacity="1" stop-color="rgb(98.918152%, 60.368347%, 9.324646%)" offset="0.167969"/><stop stop-opacity="1" stop-color="rgb(98.881531%, 59.573364%, 9.202576%)" offset="0.171875"/><stop stop-opacity="1" stop-color="rgb(98.843384%, 58.776855%, 9.078979%)" offset="0.175781"/><stop stop-opacity="1" stop-color="rgb(98.806763%, 57.980347%, 8.956909%)" offset="0.179687"/><stop stop-opacity="1" stop-color="rgb(98.770142%, 57.183838%, 8.833313%)" offset="0.183594"/><stop stop-opacity="1" stop-color="rgb(98.733521%, 56.388855%, 8.711243%)" offset="0.1875"/><stop stop-opacity="1" stop-color="rgb(98.695374%, 55.592346%, 8.587646%)" offset="0.191406"/><stop stop-opacity="1" stop-color="rgb(98.658752%, 54.797363%, 8.465576%)" offset="0.195312"/><stop stop-opacity="1" stop-color="rgb(98.620605%, 54.000854%, 8.34198%)" offset="0.199219"/><stop stop-opacity="1" stop-color="rgb(98.583984%, 53.204346%, 8.218384%)" offset="0.203125"/><stop stop-opacity="1" stop-color="rgb(98.545837%, 52.407837%, 8.094788%)" offset="0.207031"/><stop stop-opacity="1" stop-color="rgb(98.509216%, 51.612854%, 7.972717%)" offset="0.210938"/><stop stop-opacity="1" stop-color="rgb(98.472595%, 50.816345%, 7.849121%)" offset="0.214844"/><stop stop-opacity="1" stop-color="rgb(98.435974%, 50.019836%, 7.727051%)" offset="0.21875"/><stop stop-opacity="1" stop-color="rgb(98.397827%, 49.223328%, 7.603455%)" offset="0.222656"/><stop stop-opacity="1" stop-color="rgb(98.361206%, 48.428345%, 7.481384%)" offset="0.226562"/><stop stop-opacity="1" stop-color="rgb(98.323059%, 47.631836%, 7.357788%)" offset="0.230469"/><stop stop-opacity="1" stop-color="rgb(98.286438%, 46.835327%, 7.235718%)" offset="0.234375"/><stop stop-opacity="1" stop-color="rgb(98.248291%, 46.038818%, 7.112122%)" offset="0.238281"/><stop stop-opacity="1" stop-color="rgb(98.21167%, 45.243835%, 6.988525%)" offset="0.242187"/><stop stop-opacity="1" stop-color="rgb(98.175049%, 44.447327%, 6.864929%)" offset="0.246094"/><stop stop-opacity="1" stop-color="rgb(98.138428%, 43.650818%, 6.742859%)" offset="0.25"/><stop stop-opacity="1" stop-color="rgb(98.100281%, 42.854309%, 6.619263%)" offset="0.253906"/><stop stop-opacity="1" stop-color="rgb(98.06366%, 42.059326%, 6.497192%)" offset="0.257812"/><stop stop-opacity="1" stop-color="rgb(98.025513%, 41.262817%, 6.373596%)" offset="0.261719"/><stop stop-opacity="1" stop-color="rgb(97.988892%, 40.466309%, 6.251526%)" offset="0.265625"/><stop stop-opacity="1" stop-color="rgb(97.952271%, 39.6698%, 6.12793%)" offset="0.269531"/><stop stop-opacity="1" stop-color="rgb(97.915649%, 38.874817%, 6.004333%)" offset="0.273438"/><stop stop-opacity="1" stop-color="rgb(97.877502%, 38.078308%, 5.880737%)" offset="0.277344"/><stop stop-opacity="1" stop-color="rgb(97.840881%, 37.281799%, 5.758667%)" offset="0.28125"/><stop stop-opacity="1" stop-color="rgb(97.802734%, 36.485291%, 5.635071%)" offset="0.285156"/><stop stop-opacity="1" stop-color="rgb(97.766113%, 35.690308%, 5.513%)" offset="0.289062"/><stop stop-opacity="1" stop-color="rgb(97.727966%, 34.893799%, 5.389404%)" offset="0.292969"/><stop stop-opacity="1" stop-color="rgb(97.691345%, 34.09729%, 5.267334%)" offset="0.296875"/><stop stop-opacity="1" stop-color="rgb(97.654724%, 33.300781%, 5.143738%)" offset="0.300781"/><stop stop-opacity="1" stop-color="rgb(97.618103%, 32.505798%, 5.021667%)" offset="0.304688"/><stop stop-opacity="1" stop-color="rgb(97.579956%, 31.70929%, 4.898071%)" offset="0.308594"/><stop stop-opacity="1" stop-color="rgb(97.543335%, 30.912781%, 4.774475%)" offset="0.3125"/><stop stop-opacity="1" stop-color="rgb(97.505188%, 30.116272%, 4.650879%)" offset="0.316406"/><stop stop-opacity="1" stop-color="rgb(97.468567%, 29.321289%, 4.528809%)" offset="0.320312"/><stop stop-opacity="1" stop-color="rgb(97.43042%, 28.52478%, 4.405212%)" offset="0.324219"/><stop stop-opacity="1" stop-color="rgb(97.393799%, 27.728271%, 4.283142%)" offset="0.328125"/><stop stop-opacity="1" stop-color="rgb(97.357178%, 26.931763%, 4.159546%)" offset="0.332031"/><stop stop-opacity="1" stop-color="rgb(97.320557%, 26.13678%, 4.037476%)" offset="0.335938"/><stop stop-opacity="1" stop-color="rgb(97.28241%, 25.340271%, 3.913879%)" offset="0.339844"/><stop stop-opacity="1" stop-color="rgb(97.245789%, 24.543762%, 3.791809%)" offset="0.34375"/><stop stop-opacity="1" stop-color="rgb(97.207642%, 23.747253%, 3.668213%)" offset="0.347656"/><stop stop-opacity="1" stop-color="rgb(97.171021%, 22.952271%, 3.544617%)" offset="0.351562"/><stop stop-opacity="1" stop-color="rgb(97.132874%, 22.155762%, 3.421021%)" offset="0.355469"/><stop stop-opacity="1" stop-color="rgb(97.096252%, 21.359253%, 3.29895%)" offset="0.359375"/><stop stop-opacity="1" stop-color="rgb(97.059631%, 20.562744%, 3.175354%)" offset="0.363281"/><stop stop-opacity="1" stop-color="rgb(97.02301%, 19.767761%, 3.053284%)" offset="0.367188"/><stop stop-opacity="1" stop-color="rgb(96.984863%, 18.971252%, 2.929688%)" offset="0.371094"/><stop stop-opacity="1" stop-color="rgb(96.948242%, 18.174744%, 2.807617%)" offset="0.375"/><stop stop-opacity="1" stop-color="rgb(96.910095%, 17.378235%, 2.684021%)" offset="0.378906"/><stop stop-opacity="1" stop-color="rgb(96.873474%, 16.583252%, 2.561951%)" offset="0.382812"/><stop stop-opacity="1" stop-color="rgb(96.835327%, 15.786743%, 2.438354%)" offset="0.386719"/><stop stop-opacity="1" stop-color="rgb(96.798706%, 14.990234%, 2.314758%)" offset="0.390625"/><stop stop-opacity="1" stop-color="rgb(96.762085%, 14.193726%, 2.191162%)" offset="0.394531"/><stop stop-opacity="1" stop-color="rgb(96.725464%, 13.398743%, 2.069092%)" offset="0.398438"/><stop stop-opacity="1" stop-color="rgb(96.687317%, 12.602234%, 1.945496%)" offset="0.402344"/><stop stop-opacity="1" stop-color="rgb(96.650696%, 11.805725%, 1.823425%)" offset="0.40625"/><stop stop-opacity="1" stop-color="rgb(96.612549%, 11.009216%, 1.699829%)" offset="0.410156"/><stop stop-opacity="1" stop-color="rgb(96.575928%, 10.214233%, 1.577759%)" offset="0.414062"/><stop stop-opacity="1" stop-color="rgb(96.539307%, 9.417725%, 1.454163%)" offset="0.417969"/><stop stop-opacity="1" stop-color="rgb(96.502686%, 8.622742%, 1.332092%)" offset="0.421875"/><stop stop-opacity="1" stop-color="rgb(96.464539%, 7.826233%, 1.208496%)" offset="0.425781"/><stop stop-opacity="1" stop-color="rgb(96.427917%, 7.029724%, 1.0849%)" offset="0.429688"/><stop stop-opacity="1" stop-color="rgb(96.389771%, 6.233215%, 0.961304%)" offset="0.433594"/><stop stop-opacity="1" stop-color="rgb(96.353149%, 5.438232%, 0.839233%)" offset="0.4375"/><stop stop-opacity="1" stop-color="rgb(96.315002%, 4.641724%, 0.715637%)" offset="0.441406"/><stop stop-opacity="1" stop-color="rgb(96.278381%, 3.845215%, 0.593567%)" offset="0.445312"/><stop stop-opacity="1" stop-color="rgb(96.24176%, 3.048706%, 0.469971%)" offset="0.449219"/><stop stop-opacity="1" stop-color="rgb(96.205139%, 2.253723%, 0.3479%)" offset="0.453125"/><stop stop-opacity="1" stop-color="rgb(96.166992%, 1.457214%, 0.224304%)" offset="0.457031"/><stop stop-opacity="1" stop-color="rgb(96.130371%, 0.660706%, 0.100708%)" offset="0.460938"/><stop stop-opacity="1" stop-color="rgb(95.982361%, 0.32959%, 0.444031%)" offset="0.464844"/><stop stop-opacity="1" stop-color="rgb(95.834351%, 0%, 0.788879%)" offset="0.46875"/><stop stop-opacity="1" stop-color="rgb(95.608521%, 0%, 1.464844%)" offset="0.472656"/><stop stop-opacity="1" stop-color="rgb(95.38269%, 0%, 2.142334%)" offset="0.476562"/><stop stop-opacity="1" stop-color="rgb(95.15686%, 0%, 2.818298%)" offset="0.480469"/><stop stop-opacity="1" stop-color="rgb(94.93103%, 0%, 3.494263%)" offset="0.484375"/><stop stop-opacity="1" stop-color="rgb(94.7052%, 0%, 4.170227%)" offset="0.488281"/><stop stop-opacity="1" stop-color="rgb(94.47937%, 0%, 4.846191%)" offset="0.492187"/><stop stop-opacity="1" stop-color="rgb(94.252014%, 0%, 5.522156%)" offset="0.496094"/><stop stop-opacity="1" stop-color="rgb(94.026184%, 0%, 6.19812%)" offset="0.5"/><stop stop-opacity="1" stop-color="rgb(93.800354%, 0%, 6.874084%)" offset="0.503906"/><stop stop-opacity="1" stop-color="rgb(93.574524%, 0%, 7.550049%)" offset="0.507813"/><stop stop-opacity="1" stop-color="rgb(93.348694%, 0%, 8.226013%)" offset="0.511719"/><stop stop-opacity="1" stop-color="rgb(93.122864%, 0%, 8.903503%)" offset="0.515625"/><stop stop-opacity="1" stop-color="rgb(92.897034%, 0%, 9.579468%)" offset="0.519531"/><stop stop-opacity="1" stop-color="rgb(92.671204%, 0%, 10.255432%)" offset="0.523438"/><stop stop-opacity="1" stop-color="rgb(92.445374%, 0%, 10.931396%)" offset="0.527344"/><stop stop-opacity="1" stop-color="rgb(92.219543%, 0%, 11.607361%)" offset="0.53125"/><stop stop-opacity="1" stop-color="rgb(91.992188%, 0%, 12.283325%)" offset="0.535156"/><stop stop-opacity="1" stop-color="rgb(91.766357%, 0%, 12.95929%)" offset="0.539062"/><stop stop-opacity="1" stop-color="rgb(91.540527%, 0%, 13.635254%)" offset="0.542969"/><stop stop-opacity="1" stop-color="rgb(91.314697%, 0%, 14.312744%)" offset="0.546875"/><stop stop-opacity="1" stop-color="rgb(91.088867%, 0%, 14.988708%)" offset="0.550781"/><stop stop-opacity="1" stop-color="rgb(90.863037%, 0%, 15.664673%)" offset="0.554687"/><stop stop-opacity="1" stop-color="rgb(90.637207%, 0%, 16.340637%)" offset="0.558594"/><stop stop-opacity="1" stop-color="rgb(90.411377%, 0%, 17.016602%)" offset="0.5625"/><stop stop-opacity="1" stop-color="rgb(90.184021%, 0%, 17.692566%)" offset="0.566406"/><stop stop-opacity="1" stop-color="rgb(89.958191%, 0%, 18.36853%)" offset="0.570312"/><stop stop-opacity="1" stop-color="rgb(89.732361%, 0%, 19.044495%)" offset="0.574219"/><stop stop-opacity="1" stop-color="rgb(89.506531%, 0%, 19.720459%)" offset="0.578125"/><stop stop-opacity="1" stop-color="rgb(89.280701%, 0%, 20.396423%)" offset="0.582031"/><stop stop-opacity="1" stop-color="rgb(89.054871%, 0%, 21.073914%)" offset="0.585937"/><stop stop-opacity="1" stop-color="rgb(88.829041%, 0%, 21.749878%)" offset="0.589844"/><stop stop-opacity="1" stop-color="rgb(88.60321%, 0%, 22.425842%)" offset="0.59375"/><stop stop-opacity="1" stop-color="rgb(88.375854%, 0%, 23.101807%)" offset="0.597656"/><stop stop-opacity="1" stop-color="rgb(88.150024%, 0%, 23.777771%)" offset="0.601562"/><stop stop-opacity="1" stop-color="rgb(87.924194%, 0%, 24.453735%)" offset="0.605469"/><stop stop-opacity="1" stop-color="rgb(87.698364%, 0%, 25.1297%)" offset="0.609375"/><stop stop-opacity="1" stop-color="rgb(87.472534%, 0%, 25.805664%)" offset="0.613281"/><stop stop-opacity="1" stop-color="rgb(87.246704%, 0%, 26.481628%)" offset="0.617188"/><stop stop-opacity="1" stop-color="rgb(87.020874%, 0%, 27.157593%)" offset="0.621094"/><stop stop-opacity="1" stop-color="rgb(86.795044%, 0%, 27.835083%)" offset="0.625"/><stop stop-opacity="1" stop-color="rgb(86.567688%, 0%, 28.511047%)" offset="0.628906"/><stop stop-opacity="1" stop-color="rgb(86.341858%, 0%, 29.187012%)" offset="0.632812"/><stop stop-opacity="1" stop-color="rgb(86.116028%, 0%, 29.862976%)" offset="0.636719"/><stop stop-opacity="1" stop-color="rgb(85.890198%, 0%, 30.53894%)" offset="0.640625"/><stop stop-opacity="1" stop-color="rgb(85.664368%, 0%, 31.214905%)" offset="0.644531"/><stop stop-opacity="1" stop-color="rgb(85.438538%, 0%, 31.890869%)" offset="0.648437"/><stop stop-opacity="1" stop-color="rgb(85.212708%, 0%, 32.566833%)" offset="0.652344"/><stop stop-opacity="1" stop-color="rgb(84.986877%, 0%, 33.242798%)" offset="0.65625"/><stop stop-opacity="1" stop-color="rgb(84.759521%, 0%, 33.918762%)" offset="0.660156"/><stop stop-opacity="1" stop-color="rgb(84.533691%, 0%, 34.596252%)" offset="0.664062"/><stop stop-opacity="1" stop-color="rgb(84.307861%, 0%, 35.272217%)" offset="0.667969"/><stop stop-opacity="1" stop-color="rgb(84.082031%, 0%, 35.948181%)" offset="0.671875"/><stop stop-opacity="1" stop-color="rgb(83.856201%, 0%, 36.624146%)" offset="0.675781"/><stop stop-opacity="1" stop-color="rgb(83.630371%, 0%, 37.30011%)" offset="0.679688"/><stop stop-opacity="1" stop-color="rgb(83.404541%, 0%, 37.976074%)" offset="0.683594"/><stop stop-opacity="1" stop-color="rgb(83.178711%, 0%, 38.652039%)" offset="0.6875"/><stop stop-opacity="1" stop-color="rgb(82.952881%, 0%, 39.328003%)" offset="0.691406"/><stop stop-opacity="1" stop-color="rgb(82.727051%, 0%, 40.003967%)" offset="0.695312"/><stop stop-opacity="1" stop-color="rgb(82.499695%, 0%, 40.679932%)" offset="0.699219"/><stop stop-opacity="1" stop-color="rgb(82.273865%, 0%, 41.357422%)" offset="0.703125"/><stop stop-opacity="1" stop-color="rgb(82.048035%, 0%, 42.033386%)" offset="0.707031"/><stop stop-opacity="1" stop-color="rgb(81.822205%, 0%, 42.709351%)" offset="0.710937"/><stop stop-opacity="1" stop-color="rgb(81.596375%, 0%, 43.385315%)" offset="0.714844"/><stop stop-opacity="1" stop-color="rgb(81.370544%, 0%, 44.061279%)" offset="0.71875"/><stop stop-opacity="1" stop-color="rgb(81.144714%, 0%, 44.737244%)" offset="0.722656"/><stop stop-opacity="1" stop-color="rgb(80.918884%, 0%, 45.413208%)" offset="0.726562"/><stop stop-opacity="1" stop-color="rgb(80.691528%, 0%, 46.089172%)" offset="0.730469"/><stop stop-opacity="1" stop-color="rgb(80.465698%, 0%, 46.765137%)" offset="0.734375"/><stop stop-opacity="1" stop-color="rgb(80.239868%, 0%, 47.441101%)" offset="0.738281"/><stop stop-opacity="1" stop-color="rgb(80.014038%, 0%, 48.118591%)" offset="0.742188"/><stop stop-opacity="1" stop-color="rgb(79.788208%, 0%, 48.794556%)" offset="0.746094"/><stop stop-opacity="1" stop-color="rgb(79.562378%, 0%, 49.47052%)" offset="0.75"/><stop stop-opacity="1" stop-color="rgb(79.336548%, 0%, 50.146484%)" offset="0.753906"/><stop stop-opacity="1" stop-color="rgb(79.110718%, 0%, 50.822449%)" offset="0.757812"/><stop stop-opacity="1" stop-color="rgb(78.883362%, 0%, 51.498413%)" offset="0.761719"/><stop stop-opacity="1" stop-color="rgb(78.657532%, 0%, 52.174377%)" offset="0.765625"/><stop stop-opacity="1" stop-color="rgb(78.431702%, 0%, 52.850342%)" offset="0.769531"/><stop stop-opacity="1" stop-color="rgb(78.205872%, 0%, 53.526306%)" offset="0.773437"/><stop stop-opacity="1" stop-color="rgb(77.980042%, 0%, 54.202271%)" offset="0.777344"/><stop stop-opacity="1" stop-color="rgb(77.754211%, 0%, 54.879761%)" offset="0.78125"/><stop stop-opacity="1" stop-color="rgb(77.528381%, 0%, 55.555725%)" offset="0.785156"/><stop stop-opacity="1" stop-color="rgb(77.302551%, 0%, 56.231689%)" offset="0.789062"/><stop stop-opacity="1" stop-color="rgb(77.075195%, 0%, 56.907654%)" offset="0.792969"/><stop stop-opacity="1" stop-color="rgb(76.849365%, 0%, 57.583618%)" offset="0.796875"/><stop stop-opacity="1" stop-color="rgb(76.623535%, 0%, 58.259583%)" offset="0.800781"/><stop stop-opacity="1" stop-color="rgb(76.397705%, 0%, 58.935547%)" offset="0.804688"/><stop stop-opacity="1" stop-color="rgb(76.171875%, 0%, 59.611511%)" offset="0.808594"/><stop stop-opacity="1" stop-color="rgb(75.946045%, 0%, 60.287476%)" offset="0.8125"/><stop stop-opacity="1" stop-color="rgb(75.720215%, 0%, 60.96344%)" offset="0.816406"/><stop stop-opacity="1" stop-color="rgb(75.494385%, 0%, 61.64093%)" offset="0.820312"/><stop stop-opacity="1" stop-color="rgb(75.267029%, 0%, 62.316895%)" offset="0.824219"/><stop stop-opacity="1" stop-color="rgb(75.041199%, 0%, 62.992859%)" offset="0.828125"/><stop stop-opacity="1" stop-color="rgb(74.815369%, 0%, 63.668823%)" offset="0.832031"/><stop stop-opacity="1" stop-color="rgb(74.589539%, 0%, 64.344788%)" offset="0.835937"/><stop stop-opacity="1" stop-color="rgb(74.363708%, 0%, 65.020752%)" offset="0.839844"/><stop stop-opacity="1" stop-color="rgb(74.137878%, 0%, 65.696716%)" offset="0.84375"/><stop stop-opacity="1" stop-color="rgb(73.912048%, 0%, 66.372681%)" offset="0.847656"/><stop stop-opacity="1" stop-color="rgb(73.686218%, 0%, 67.048645%)" offset="0.851562"/><stop stop-opacity="1" stop-color="rgb(73.460388%, 0%, 67.724609%)" offset="0.855469"/><stop stop-opacity="1" stop-color="rgb(73.234558%, 0%, 68.4021%)" offset="0.859375"/><stop stop-opacity="1" stop-color="rgb(73.007202%, 0%, 69.078064%)" offset="0.863281"/><stop stop-opacity="1" stop-color="rgb(72.781372%, 0%, 69.754028%)" offset="0.867188"/><stop stop-opacity="1" stop-color="rgb(72.639465%, 0%, 70.176697%)" offset="0.871094"/><stop stop-opacity="1" stop-color="rgb(72.499084%, 0%, 70.599365%)" offset="0.875"/><stop stop-opacity="1" stop-color="rgb(72.499084%, 0%, 70.599365%)" offset="1"/></linearGradient><clipPath id="f27b9e2d2e"><path d="M 321 154 L 488 154 L 488 321 L 321 321 Z M 321 154 " clip-rule="nonzero"/></clipPath><clipPath id="3146b753a3"><path d="M 404.777344 291.453125 C 375.007812 291.453125 350.851562 267.335938 350.851562 237.566406 C 350.851562 207.75 375.007812 183.601562 404.777344 183.601562 C 434.554688 183.601562 458.742188 207.75 458.742188 237.566406 C 458.742188 267.335938 434.554688 291.453125 404.777344 291.453125 Z M 404.777344 154.433594 C 358.886719 154.433594 321.722656 191.675781 321.722656 237.566406 C 321.722656 283.417969 358.886719 320.625 404.777344 320.625 C 450.667969 320.625 487.875 283.417969 487.875 237.566406 C 487.875 191.675781 450.667969 154.433594 404.777344 154.433594 Z M 404.777344 154.433594 " clip-rule="nonzero"/></clipPath><linearGradient x1="129.795484" gradientTransform="matrix(0.606742, 0, 0, 0.606742, 243.000001, 75.750019)" y1="403.637493" x2="403.670494" gradientUnits="userSpaceOnUse" y2="129.762499" id="9bb8345082"><stop stop-opacity="1" stop-color="rgb(98.202515%, 45.031738%, 6.956482%)" offset="0"/><stop stop-opacity="1" stop-color="rgb(98.182678%, 44.622803%, 6.892395%)" offset="0.00390625"/><stop stop-opacity="1" stop-color="rgb(98.164368%, 44.213867%, 6.829834%)" offset="0.0078125"/><stop stop-opacity="1" stop-color="rgb(98.144531%, 43.804932%, 6.765747%)" offset="0.0117188"/><stop stop-opacity="1" stop-color="rgb(98.126221%, 43.395996%, 6.703186%)" offset="0.015625"/><stop stop-opacity="1" stop-color="rgb(98.106384%, 42.987061%, 6.640625%)" offset="0.0195312"/><stop stop-opacity="1" stop-color="rgb(98.088074%, 42.578125%, 6.578064%)" offset="0.0234375"/><stop stop-opacity="1" stop-color="rgb(98.068237%, 42.169189%, 6.513977%)" offset="0.0273437"/><stop stop-opacity="1" stop-color="rgb(98.049927%, 41.760254%, 6.451416%)" offset="0.03125"/><stop stop-opacity="1" stop-color="rgb(98.03009%, 41.351318%, 6.387329%)" offset="0.0351562"/><stop stop-opacity="1" stop-color="rgb(98.01178%, 40.942383%, 6.324768%)" offset="0.0390625"/><stop stop-opacity="1" stop-color="rgb(97.991943%, 40.533447%, 6.260681%)" offset="0.0429687"/><stop stop-opacity="1" stop-color="rgb(97.973633%, 40.124512%, 6.19812%)" offset="0.046875"/><stop stop-opacity="1" stop-color="rgb(97.953796%, 39.715576%, 6.134033%)" offset="0.0507813"/><stop stop-opacity="1" stop-color="rgb(97.935486%, 39.306641%, 6.071472%)" offset="0.0546875"/><stop stop-opacity="1" stop-color="rgb(97.915649%, 38.897705%, 6.008911%)" offset="0.0585937"/><stop stop-opacity="1" stop-color="rgb(97.897339%, 38.48877%, 5.94635%)" offset="0.0625"/><stop stop-opacity="1" stop-color="rgb(97.877502%, 38.079834%, 5.882263%)" offset="0.0664062"/><stop stop-opacity="1" stop-color="rgb(97.859192%, 37.670898%, 5.819702%)" offset="0.0703125"/><stop stop-opacity="1" stop-color="rgb(97.839355%, 37.261963%, 5.755615%)" offset="0.0742187"/><stop stop-opacity="1" stop-color="rgb(97.821045%, 36.853027%, 5.693054%)" offset="0.078125"/><stop stop-opacity="1" stop-color="rgb(97.801208%, 36.444092%, 5.628967%)" offset="0.0820313"/><stop stop-opacity="1" stop-color="rgb(97.782898%, 36.036682%, 5.566406%)" offset="0.0859375"/><stop stop-opacity="1" stop-color="rgb(97.763062%, 35.627747%, 5.502319%)" offset="0.0898438"/><stop stop-opacity="1" stop-color="rgb(97.744751%, 35.218811%, 5.439758%)" offset="0.09375"/><stop stop-opacity="1" stop-color="rgb(97.724915%, 34.809875%, 5.377197%)" offset="0.0976562"/><stop stop-opacity="1" stop-color="rgb(97.706604%, 34.40094%, 5.314636%)" offset="0.101562"/><stop stop-opacity="1" stop-color="rgb(97.686768%, 33.992004%, 5.250549%)" offset="0.105469"/><stop stop-opacity="1" stop-color="rgb(97.668457%, 33.583069%, 5.187988%)" offset="0.109375"/><stop stop-opacity="1" stop-color="rgb(97.648621%, 33.174133%, 5.123901%)" offset="0.113281"/><stop stop-opacity="1" stop-color="rgb(97.63031%, 32.765198%, 5.06134%)" offset="0.117188"/><stop stop-opacity="1" stop-color="rgb(97.610474%, 32.356262%, 4.997253%)" offset="0.121094"/><stop stop-opacity="1" stop-color="rgb(97.590637%, 31.947327%, 4.934692%)" offset="0.125"/><stop stop-opacity="1" stop-color="rgb(97.570801%, 31.538391%, 4.870605%)" offset="0.128906"/><stop stop-opacity="1" stop-color="rgb(97.55249%, 31.129456%, 4.808044%)" offset="0.132812"/><stop stop-opacity="1" stop-color="rgb(97.532654%, 30.72052%, 4.743958%)" offset="0.136719"/><stop stop-opacity="1" stop-color="rgb(97.514343%, 30.311584%, 4.681396%)" offset="0.140625"/><stop stop-opacity="1" stop-color="rgb(97.494507%, 29.902649%, 4.618835%)" offset="0.144531"/><stop stop-opacity="1" stop-color="rgb(97.476196%, 29.493713%, 4.556274%)" offset="0.148438"/><stop stop-opacity="1" stop-color="rgb(97.45636%, 29.084778%, 4.492188%)" offset="0.152344"/><stop stop-opacity="1" stop-color="rgb(97.438049%, 28.675842%, 4.429626%)" offset="0.15625"/><stop stop-opacity="1" stop-color="rgb(97.418213%, 28.266907%, 4.36554%)" offset="0.160156"/><stop stop-opacity="1" stop-color="rgb(97.399902%, 27.857971%, 4.302979%)" offset="0.164063"/><stop stop-opacity="1" stop-color="rgb(97.380066%, 27.449036%, 4.238892%)" offset="0.167969"/><stop stop-opacity="1" stop-color="rgb(97.361755%, 27.0401%, 4.176331%)" offset="0.171875"/><stop stop-opacity="1" stop-color="rgb(97.341919%, 26.631165%, 4.112244%)" offset="0.175781"/><stop stop-opacity="1" stop-color="rgb(97.323608%, 26.222229%, 4.049683%)" offset="0.179687"/><stop stop-opacity="1" stop-color="rgb(97.303772%, 25.813293%, 3.987122%)" offset="0.183594"/><stop stop-opacity="1" stop-color="rgb(97.285461%, 25.404358%, 3.924561%)" offset="0.1875"/><stop stop-opacity="1" stop-color="rgb(97.265625%, 24.995422%, 3.860474%)" offset="0.191406"/><stop stop-opacity="1" stop-color="rgb(97.247314%, 24.586487%, 3.797913%)" offset="0.195313"/><stop stop-opacity="1" stop-color="rgb(97.227478%, 24.177551%, 3.733826%)" offset="0.199219"/><stop stop-opacity="1" stop-color="rgb(97.209167%, 23.768616%, 3.671265%)" offset="0.203125"/><stop stop-opacity="1" stop-color="rgb(97.189331%, 23.35968%, 3.607178%)" offset="0.207031"/><stop stop-opacity="1" stop-color="rgb(97.171021%, 22.950745%, 3.544617%)" offset="0.210938"/><stop stop-opacity="1" stop-color="rgb(97.151184%, 22.541809%, 3.48053%)" offset="0.214844"/><stop stop-opacity="1" stop-color="rgb(97.132874%, 22.132874%, 3.417969%)" offset="0.21875"/><stop stop-opacity="1" stop-color="rgb(97.113037%, 21.723938%, 3.355408%)" offset="0.222656"/><stop stop-opacity="1" stop-color="rgb(97.094727%, 21.315002%, 3.292847%)" offset="0.226562"/><stop stop-opacity="1" stop-color="rgb(97.07489%, 20.906067%, 3.22876%)" offset="0.230469"/><stop stop-opacity="1" stop-color="rgb(97.05658%, 20.497131%, 3.166199%)" offset="0.234375"/><stop stop-opacity="1" stop-color="rgb(97.036743%, 20.088196%, 3.102112%)" offset="0.238281"/><stop stop-opacity="1" stop-color="rgb(97.018433%, 19.67926%, 3.039551%)" offset="0.242188"/><stop stop-opacity="1" stop-color="rgb(96.998596%, 19.270325%, 2.975464%)" offset="0.246094"/><stop stop-opacity="1" stop-color="rgb(96.980286%, 18.861389%, 2.912903%)" offset="0.25"/><stop stop-opacity="1" stop-color="rgb(96.960449%, 18.452454%, 2.848816%)" offset="0.253906"/><stop stop-opacity="1" stop-color="rgb(96.942139%, 18.043518%, 2.786255%)" offset="0.257812"/><stop stop-opacity="1" stop-color="rgb(96.922302%, 17.634583%, 2.723694%)" offset="0.261719"/><stop stop-opacity="1" stop-color="rgb(96.903992%, 17.225647%, 2.661133%)" offset="0.265625"/><stop stop-opacity="1" stop-color="rgb(96.884155%, 16.816711%, 2.597046%)" offset="0.269531"/><stop stop-opacity="1" stop-color="rgb(96.865845%, 16.407776%, 2.534485%)" offset="0.273438"/><stop stop-opacity="1" stop-color="rgb(96.846008%, 15.99884%, 2.470398%)" offset="0.277344"/><stop stop-opacity="1" stop-color="rgb(96.827698%, 15.589905%, 2.407837%)" offset="0.28125"/><stop stop-opacity="1" stop-color="rgb(96.807861%, 15.180969%, 2.34375%)" offset="0.285156"/><stop stop-opacity="1" stop-color="rgb(96.789551%, 14.772034%, 2.281189%)" offset="0.289062"/><stop stop-opacity="1" stop-color="rgb(96.769714%, 14.363098%, 2.217102%)" offset="0.292969"/><stop stop-opacity="1" stop-color="rgb(96.751404%, 13.954163%, 2.154541%)" offset="0.296875"/><stop stop-opacity="1" stop-color="rgb(96.731567%, 13.545227%, 2.09198%)" offset="0.300781"/><stop stop-opacity="1" stop-color="rgb(96.713257%, 13.136292%, 2.029419%)" offset="0.304687"/><stop stop-opacity="1" stop-color="rgb(96.69342%, 12.727356%, 1.965332%)" offset="0.308594"/><stop stop-opacity="1" stop-color="rgb(96.67511%, 12.31842%, 1.902771%)" offset="0.3125"/><stop stop-opacity="1" stop-color="rgb(96.655273%, 11.909485%, 1.838684%)" offset="0.316406"/><stop stop-opacity="1" stop-color="rgb(96.636963%, 11.500549%, 1.776123%)" offset="0.320313"/><stop stop-opacity="1" stop-color="rgb(96.617126%, 11.091614%, 1.712036%)" offset="0.324219"/><stop stop-opacity="1" stop-color="rgb(96.598816%, 10.682678%, 1.649475%)" offset="0.328125"/><stop stop-opacity="1" stop-color="rgb(96.578979%, 10.273743%, 1.585388%)" offset="0.332031"/><stop stop-opacity="1" stop-color="rgb(96.560669%, 9.864807%, 1.522827%)" offset="0.335937"/><stop stop-opacity="1" stop-color="rgb(96.540833%, 9.455872%, 1.460266%)" offset="0.339844"/><stop stop-opacity="1" stop-color="rgb(96.522522%, 9.046936%, 1.397705%)" offset="0.34375"/><stop stop-opacity="1" stop-color="rgb(96.502686%, 8.638%, 1.333618%)" offset="0.347656"/><stop stop-opacity="1" stop-color="rgb(96.484375%, 8.229065%, 1.271057%)" offset="0.351562"/><stop stop-opacity="1" stop-color="rgb(96.464539%, 7.820129%, 1.20697%)" offset="0.355469"/><stop stop-opacity="1" stop-color="rgb(96.444702%, 7.411194%, 1.144409%)" offset="0.359375"/><stop stop-opacity="1" stop-color="rgb(96.424866%, 7.002258%, 1.080322%)" offset="0.363281"/><stop stop-opacity="1" stop-color="rgb(96.406555%, 6.593323%, 1.017761%)" offset="0.367188"/><stop stop-opacity="1" stop-color="rgb(96.386719%, 6.184387%, 0.953674%)" offset="0.371094"/><stop stop-opacity="1" stop-color="rgb(96.368408%, 5.775452%, 0.891113%)" offset="0.375"/><stop stop-opacity="1" stop-color="rgb(96.348572%, 5.366516%, 0.828552%)" offset="0.378906"/><stop stop-opacity="1" stop-color="rgb(96.330261%, 4.957581%, 0.765991%)" offset="0.382812"/><stop stop-opacity="1" stop-color="rgb(96.310425%, 4.548645%, 0.701904%)" offset="0.386719"/><stop stop-opacity="1" stop-color="rgb(96.292114%, 4.139709%, 0.639343%)" offset="0.390625"/><stop stop-opacity="1" stop-color="rgb(96.272278%, 3.730774%, 0.575256%)" offset="0.394531"/><stop stop-opacity="1" stop-color="rgb(96.253967%, 3.323364%, 0.512695%)" offset="0.398437"/><stop stop-opacity="1" stop-color="rgb(96.234131%, 2.914429%, 0.448608%)" offset="0.402344"/><stop stop-opacity="1" stop-color="rgb(96.21582%, 2.505493%, 0.386047%)" offset="0.40625"/><stop stop-opacity="1" stop-color="rgb(96.195984%, 2.096558%, 0.32196%)" offset="0.410156"/><stop stop-opacity="1" stop-color="rgb(96.177673%, 1.687622%, 0.259399%)" offset="0.414062"/><stop stop-opacity="1" stop-color="rgb(96.157837%, 1.278687%, 0.196838%)" offset="0.417969"/><stop stop-opacity="1" stop-color="rgb(96.139526%, 0.869751%, 0.134277%)" offset="0.421875"/><stop stop-opacity="1" stop-color="rgb(96.11969%, 0.460815%, 0.0701904%)" offset="0.425781"/><stop stop-opacity="1" stop-color="rgb(96.101379%, 0.0518799%, 0.00762939%)" offset="0.429687"/><stop stop-opacity="1" stop-color="rgb(95.991516%, 0.0259399%, 0.328064%)" offset="0.433594"/><stop stop-opacity="1" stop-color="rgb(95.881653%, 0%, 0.650024%)" offset="0.4375"/><stop stop-opacity="1" stop-color="rgb(95.765686%, 0%, 0.996399%)" offset="0.441406"/><stop stop-opacity="1" stop-color="rgb(95.649719%, 0%, 1.344299%)" offset="0.445312"/><stop stop-opacity="1" stop-color="rgb(95.533752%, 0%, 1.690674%)" offset="0.449219"/><stop stop-opacity="1" stop-color="rgb(95.417786%, 0%, 2.038574%)" offset="0.453125"/><stop stop-opacity="1" stop-color="rgb(95.301819%, 0%, 2.384949%)" offset="0.457031"/><stop stop-opacity="1" stop-color="rgb(95.185852%, 0%, 2.732849%)" offset="0.460937"/><stop stop-opacity="1" stop-color="rgb(95.068359%, 0%, 3.079224%)" offset="0.464844"/><stop stop-opacity="1" stop-color="rgb(94.952393%, 0%, 3.427124%)" offset="0.46875"/><stop stop-opacity="1" stop-color="rgb(94.836426%, 0%, 3.775024%)" offset="0.472656"/><stop stop-opacity="1" stop-color="rgb(94.720459%, 0%, 4.122925%)" offset="0.476562"/><stop stop-opacity="1" stop-color="rgb(94.604492%, 0%, 4.469299%)" offset="0.480469"/><stop stop-opacity="1" stop-color="rgb(94.488525%, 0%, 4.8172%)" offset="0.484375"/><stop stop-opacity="1" stop-color="rgb(94.372559%, 0%, 5.163574%)" offset="0.488281"/><stop stop-opacity="1" stop-color="rgb(94.256592%, 0%, 5.511475%)" offset="0.492187"/><stop stop-opacity="1" stop-color="rgb(94.140625%, 0%, 5.857849%)" offset="0.496094"/><stop stop-opacity="1" stop-color="rgb(94.024658%, 0%, 6.20575%)" offset="0.5"/><stop stop-opacity="1" stop-color="rgb(93.908691%, 0%, 6.552124%)" offset="0.503906"/><stop stop-opacity="1" stop-color="rgb(93.792725%, 0%, 6.900024%)" offset="0.507812"/><stop stop-opacity="1" stop-color="rgb(93.676758%, 0%, 7.247925%)" offset="0.511719"/><stop stop-opacity="1" stop-color="rgb(93.560791%, 0%, 7.595825%)" offset="0.515625"/><stop stop-opacity="1" stop-color="rgb(93.443298%, 0%, 7.9422%)" offset="0.519531"/><stop stop-opacity="1" stop-color="rgb(93.327332%, 0%, 8.2901%)" offset="0.523437"/><stop stop-opacity="1" stop-color="rgb(93.211365%, 0%, 8.636475%)" offset="0.527344"/><stop stop-opacity="1" stop-color="rgb(93.095398%, 0%, 8.984375%)" offset="0.53125"/><stop stop-opacity="1" stop-color="rgb(92.979431%, 0%, 9.33075%)" offset="0.535156"/><stop stop-opacity="1" stop-color="rgb(92.863464%, 0%, 9.67865%)" offset="0.539063"/><stop stop-opacity="1" stop-color="rgb(92.747498%, 0%, 10.025024%)" offset="0.542969"/><stop stop-opacity="1" stop-color="rgb(92.631531%, 0%, 10.372925%)" offset="0.546875"/><stop stop-opacity="1" stop-color="rgb(92.515564%, 0%, 10.720825%)" offset="0.550781"/><stop stop-opacity="1" stop-color="rgb(92.399597%, 0%, 11.068726%)" offset="0.554688"/><stop stop-opacity="1" stop-color="rgb(92.28363%, 0%, 11.4151%)" offset="0.558594"/><stop stop-opacity="1" stop-color="rgb(92.167664%, 0%, 11.763%)" offset="0.5625"/><stop stop-opacity="1" stop-color="rgb(92.050171%, 0%, 12.109375%)" offset="0.566406"/><stop stop-opacity="1" stop-color="rgb(91.934204%, 0%, 12.457275%)" offset="0.570312"/><stop stop-opacity="1" stop-color="rgb(91.818237%, 0%, 12.80365%)" offset="0.574219"/><stop stop-opacity="1" stop-color="rgb(91.702271%, 0%, 13.15155%)" offset="0.578125"/><stop stop-opacity="1" stop-color="rgb(91.586304%, 0%, 13.497925%)" offset="0.582031"/><stop stop-opacity="1" stop-color="rgb(91.470337%, 0%, 13.845825%)" offset="0.585937"/><stop stop-opacity="1" stop-color="rgb(91.35437%, 0%, 14.193726%)" offset="0.589844"/><stop stop-opacity="1" stop-color="rgb(91.238403%, 0%, 14.541626%)" offset="0.59375"/><stop stop-opacity="1" stop-color="rgb(91.122437%, 0%, 14.888%)" offset="0.597656"/><stop stop-opacity="1" stop-color="rgb(91.00647%, 0%, 15.235901%)" offset="0.601562"/><stop stop-opacity="1" stop-color="rgb(90.890503%, 0%, 15.582275%)" offset="0.605469"/><stop stop-opacity="1" stop-color="rgb(90.774536%, 0%, 15.930176%)" offset="0.609375"/><stop stop-opacity="1" stop-color="rgb(90.657043%, 0%, 16.27655%)" offset="0.613281"/><stop stop-opacity="1" stop-color="rgb(90.541077%, 0%, 16.624451%)" offset="0.617187"/><stop stop-opacity="1" stop-color="rgb(90.42511%, 0%, 16.970825%)" offset="0.621094"/><stop stop-opacity="1" stop-color="rgb(90.309143%, 0%, 17.318726%)" offset="0.625"/><stop stop-opacity="1" stop-color="rgb(90.193176%, 0%, 17.6651%)" offset="0.628906"/><stop stop-opacity="1" stop-color="rgb(90.077209%, 0%, 18.013%)" offset="0.632812"/><stop stop-opacity="1" stop-color="rgb(89.961243%, 0%, 18.360901%)" offset="0.636719"/><stop stop-opacity="1" stop-color="rgb(89.845276%, 0%, 18.708801%)" offset="0.640625"/><stop stop-opacity="1" stop-color="rgb(89.729309%, 0%, 19.055176%)" offset="0.644531"/><stop stop-opacity="1" stop-color="rgb(89.613342%, 0%, 19.403076%)" offset="0.648437"/><stop stop-opacity="1" stop-color="rgb(89.497375%, 0%, 19.749451%)" offset="0.652344"/><stop stop-opacity="1" stop-color="rgb(89.381409%, 0%, 20.097351%)" offset="0.65625"/><stop stop-opacity="1" stop-color="rgb(89.263916%, 0%, 20.443726%)" offset="0.660156"/><stop stop-opacity="1" stop-color="rgb(89.147949%, 0%, 20.791626%)" offset="0.664062"/><stop stop-opacity="1" stop-color="rgb(89.031982%, 0%, 21.138%)" offset="0.667969"/><stop stop-opacity="1" stop-color="rgb(88.916016%, 0%, 21.485901%)" offset="0.671875"/><stop stop-opacity="1" stop-color="rgb(88.800049%, 0%, 21.833801%)" offset="0.675781"/><stop stop-opacity="1" stop-color="rgb(88.684082%, 0%, 22.181702%)" offset="0.679687"/><stop stop-opacity="1" stop-color="rgb(88.568115%, 0%, 22.528076%)" offset="0.683594"/><stop stop-opacity="1" stop-color="rgb(88.452148%, 0%, 22.875977%)" offset="0.6875"/><stop stop-opacity="1" stop-color="rgb(88.336182%, 0%, 23.222351%)" offset="0.691406"/><stop stop-opacity="1" stop-color="rgb(88.220215%, 0%, 23.570251%)" offset="0.695312"/><stop stop-opacity="1" stop-color="rgb(88.104248%, 0%, 23.916626%)" offset="0.699219"/><stop stop-opacity="1" stop-color="rgb(87.988281%, 0%, 24.264526%)" offset="0.703125"/><stop stop-opacity="1" stop-color="rgb(87.872314%, 0%, 24.610901%)" offset="0.707031"/><stop stop-opacity="1" stop-color="rgb(87.756348%, 0%, 24.958801%)" offset="0.710937"/><stop stop-opacity="1" stop-color="rgb(87.638855%, 0%, 25.306702%)" offset="0.714844"/><stop stop-opacity="1" stop-color="rgb(87.522888%, 0%, 25.654602%)" offset="0.71875"/><stop stop-opacity="1" stop-color="rgb(87.406921%, 0%, 26.000977%)" offset="0.722656"/><stop stop-opacity="1" stop-color="rgb(87.290955%, 0%, 26.348877%)" offset="0.726562"/><stop stop-opacity="1" stop-color="rgb(87.174988%, 0%, 26.695251%)" offset="0.730469"/><stop stop-opacity="1" stop-color="rgb(87.059021%, 0%, 27.043152%)" offset="0.734375"/><stop stop-opacity="1" stop-color="rgb(86.943054%, 0%, 27.389526%)" offset="0.738281"/><stop stop-opacity="1" stop-color="rgb(86.827087%, 0%, 27.737427%)" offset="0.742187"/><stop stop-opacity="1" stop-color="rgb(86.711121%, 0%, 28.083801%)" offset="0.746094"/><stop stop-opacity="1" stop-color="rgb(86.595154%, 0%, 28.431702%)" offset="0.75"/><stop stop-opacity="1" stop-color="rgb(86.479187%, 0%, 28.778076%)" offset="0.753906"/><stop stop-opacity="1" stop-color="rgb(86.36322%, 0%, 29.125977%)" offset="0.757812"/><stop stop-opacity="1" stop-color="rgb(86.245728%, 0%, 29.473877%)" offset="0.761719"/><stop stop-opacity="1" stop-color="rgb(86.129761%, 0%, 29.821777%)" offset="0.765625"/><stop stop-opacity="1" stop-color="rgb(86.013794%, 0%, 30.168152%)" offset="0.769531"/><stop stop-opacity="1" stop-color="rgb(85.897827%, 0%, 30.516052%)" offset="0.773437"/><stop stop-opacity="1" stop-color="rgb(85.78186%, 0%, 30.862427%)" offset="0.777344"/><stop stop-opacity="1" stop-color="rgb(85.665894%, 0%, 31.210327%)" offset="0.78125"/><stop stop-opacity="1" stop-color="rgb(85.549927%, 0%, 31.556702%)" offset="0.785156"/><stop stop-opacity="1" stop-color="rgb(85.43396%, 0%, 31.904602%)" offset="0.789062"/><stop stop-opacity="1" stop-color="rgb(85.317993%, 0%, 32.250977%)" offset="0.792969"/><stop stop-opacity="1" stop-color="rgb(85.202026%, 0%, 32.598877%)" offset="0.796875"/><stop stop-opacity="1" stop-color="rgb(85.08606%, 0%, 32.946777%)" offset="0.800781"/><stop stop-opacity="1" stop-color="rgb(84.970093%, 0%, 33.294678%)" offset="0.804687"/><stop stop-opacity="1" stop-color="rgb(84.8526%, 0%, 33.641052%)" offset="0.808594"/><stop stop-opacity="1" stop-color="rgb(84.736633%, 0%, 33.988953%)" offset="0.8125"/><stop stop-opacity="1" stop-color="rgb(84.620667%, 0%, 34.335327%)" offset="0.816406"/><stop stop-opacity="1" stop-color="rgb(84.5047%, 0%, 34.683228%)" offset="0.820312"/><stop stop-opacity="1" stop-color="rgb(84.388733%, 0%, 35.029602%)" offset="0.824219"/><stop stop-opacity="1" stop-color="rgb(84.272766%, 0%, 35.377502%)" offset="0.828125"/><stop stop-opacity="1" stop-color="rgb(84.156799%, 0%, 35.723877%)" offset="0.832031"/><stop stop-opacity="1" stop-color="rgb(84.040833%, 0%, 36.071777%)" offset="0.835937"/><stop stop-opacity="1" stop-color="rgb(83.924866%, 0%, 36.419678%)" offset="0.839844"/><stop stop-opacity="1" stop-color="rgb(83.808899%, 0%, 36.767578%)" offset="0.84375"/><stop stop-opacity="1" stop-color="rgb(83.692932%, 0%, 37.113953%)" offset="0.847656"/><stop stop-opacity="1" stop-color="rgb(83.576965%, 0%, 37.461853%)" offset="0.851563"/><stop stop-opacity="1" stop-color="rgb(83.459473%, 0%, 37.808228%)" offset="0.855469"/><stop stop-opacity="1" stop-color="rgb(83.343506%, 0%, 38.156128%)" offset="0.859375"/><stop stop-opacity="1" stop-color="rgb(83.227539%, 0%, 38.502502%)" offset="0.863281"/><stop stop-opacity="1" stop-color="rgb(83.111572%, 0%, 38.850403%)" offset="0.867188"/><stop stop-opacity="1" stop-color="rgb(82.995605%, 0%, 39.196777%)" offset="0.871094"/><stop stop-opacity="1" stop-color="rgb(82.879639%, 0%, 39.544678%)" offset="0.875"/><stop stop-opacity="1" stop-color="rgb(82.763672%, 0%, 39.892578%)" offset="0.878906"/><stop stop-opacity="1" stop-color="rgb(82.647705%, 0%, 40.240479%)" offset="0.882812"/><stop stop-opacity="1" stop-color="rgb(82.531738%, 0%, 40.586853%)" offset="0.886719"/><stop stop-opacity="1" stop-color="rgb(82.415771%, 0%, 40.934753%)" offset="0.890625"/><stop stop-opacity="1" stop-color="rgb(82.299805%, 0%, 41.281128%)" offset="0.894531"/><stop stop-opacity="1" stop-color="rgb(82.183838%, 0%, 41.629028%)" offset="0.898437"/><stop stop-opacity="1" stop-color="rgb(82.067871%, 0%, 41.975403%)" offset="0.902344"/><stop stop-opacity="1" stop-color="rgb(81.951904%, 0%, 42.323303%)" offset="0.90625"/><stop stop-opacity="1" stop-color="rgb(81.834412%, 0%, 42.669678%)" offset="0.910156"/><stop stop-opacity="1" stop-color="rgb(81.718445%, 0%, 43.017578%)" offset="0.914062"/><stop stop-opacity="1" stop-color="rgb(81.602478%, 0%, 43.363953%)" offset="0.917969"/><stop stop-opacity="1" stop-color="rgb(81.486511%, 0%, 43.711853%)" offset="0.921875"/><stop stop-opacity="1" stop-color="rgb(81.370544%, 0%, 44.059753%)" offset="0.925781"/><stop stop-opacity="1" stop-color="rgb(81.254578%, 0%, 44.407654%)" offset="0.929688"/><stop stop-opacity="1" stop-color="rgb(81.138611%, 0%, 44.754028%)" offset="0.933594"/><stop stop-opacity="1" stop-color="rgb(81.022644%, 0%, 45.101929%)" offset="0.9375"/><stop stop-opacity="1" stop-color="rgb(80.906677%, 0%, 45.448303%)" offset="0.941406"/><stop stop-opacity="1" stop-color="rgb(80.79071%, 0%, 45.796204%)" offset="0.945312"/><stop stop-opacity="1" stop-color="rgb(80.674744%, 0%, 46.142578%)" offset="0.949219"/><stop stop-opacity="1" stop-color="rgb(80.558777%, 0%, 46.490479%)" offset="0.953125"/><stop stop-opacity="1" stop-color="rgb(80.441284%, 0%, 46.836853%)" offset="0.957031"/><stop stop-opacity="1" stop-color="rgb(80.325317%, 0%, 47.184753%)" offset="0.960937"/><stop stop-opacity="1" stop-color="rgb(80.209351%, 0%, 47.532654%)" offset="0.964844"/><stop stop-opacity="1" stop-color="rgb(80.093384%, 0%, 47.880554%)" offset="0.96875"/><stop stop-opacity="1" stop-color="rgb(79.977417%, 0%, 48.226929%)" offset="0.972656"/><stop stop-opacity="1" stop-color="rgb(79.86145%, 0%, 48.574829%)" offset="0.976562"/><stop stop-opacity="1" stop-color="rgb(79.745483%, 0%, 48.921204%)" offset="0.980469"/><stop stop-opacity="1" stop-color="rgb(79.629517%, 0%, 49.269104%)" offset="0.984375"/><stop stop-opacity="1" stop-color="rgb(79.51355%, 0%, 49.615479%)" offset="0.988281"/><stop stop-opacity="1" stop-color="rgb(79.397583%, 0%, 49.963379%)" offset="0.992187"/><stop stop-opacity="1" stop-color="rgb(79.281616%, 0%, 50.309753%)" offset="0.996094"/><stop stop-opacity="1" stop-color="rgb(79.165649%, 0%, 50.657654%)" offset="1"/></linearGradient><clipPath id="fe308ef216"><path d="M 171.605469 444.296875 L 638.105469 444.296875 L 638.105469 576.296875 L 171.605469 576.296875 Z M 171.605469 444.296875 " clip-rule="nonzero"/></clipPath></defs><g clip-path="url(#6d46947e5a)"><g clip-path="url(#1ad32dfb8b)"><path fill="url(#b2071a4ea7)" d="M 471.71875 131.746094 L 471.71875 170.585938 L 510.589844 170.585938 L 510.589844 131.746094 Z M 471.71875 131.746094 " fill-rule="nonzero"/></g></g><g clip-path="url(#a1cf2682b3)"><g clip-path="url(#5577f02f0f)"><path fill="url(#c6d4c4b612)" d="M 243 75.75 L 243 399.34375 L 566.59375 399.34375 L 566.59375 75.75 Z M 243 75.75 " fill-rule="nonzero"/></g></g><g clip-path="url(#f27b9e2d2e)"><g clip-path="url(#3146b753a3)"><path fill="url(#9bb8345082)" d="M 321.722656 154.433594 L 321.722656 320.625 L 487.875 320.625 L 487.875 154.433594 Z M 321.722656 154.433594 " fill-rule="nonzero"/></g></g><g clip-path="url(#fe308ef216)"><path fill="#b900b4" d="M 195.65625 444.753906 C 186.097656 448.75 175.589844 460.019531 172.273438 474.199219 C 168.066406 492.144531 185.5625 499.726562 186.992188 497.25 C 188.671875 494.320312 183.84375 493.335938 182.859375 484.027344 C 181.589844 471.996094 187.179688 458.550781 194.230469 452.648438 C 195.542969 451.570312 195.480469 453.09375 195.480469 455.898438 C 195.480469 460.957031 195.199219 506.226562 195.199219 515.675781 C 195.199219 528.46875 194.671875 532.496094 193.703125 536.476562 C 192.753906 540.519531 191.210938 543.246094 192.371094 544.308594 C 193.6875 545.480469 199.273438 542.691406 202.515625 538.175781 C 206.390625 532.765625 207.753906 526.265625 208.007812 519.210938 C 208.292969 510.714844 208.277344 497.203125 208.292969 489.515625 C 208.292969 482.441406 208.40625 461.769531 208.183594 449.320312 C 208.117188 446.277344 199.640625 443.089844 195.65625 444.753906 Z M 636.261719 511.917969 C 634.894531 511.917969 634.246094 513.34375 633.722656 515.738281 C 631.910156 524.09375 630.007812 525.980469 627.546875 525.980469 C 624.800781 525.980469 622.339844 521.84375 621.6875 513.566406 C 621.199219 507.066406 621.277344 495.078125 621.910156 483.15625 C 622.039062 480.714844 621.371094 478.289062 614.796875 475.894531 C 611.957031 474.878906 607.84375 473.359375 605.796875 478.304688 C 600.003906 492.242188 597.75 503.339844 597.207031 507.828125 C 597.195312 508.0625 596.90625 508.097656 596.859375 507.558594 C 596.527344 503.957031 595.765625 497.410156 595.671875 483.644531 C 595.636719 480.984375 595.082031 478.683594 592.097656 476.8125 C 590.175781 475.609375 584.332031 473.453125 582.222656 476.007812 C 580.410156 478.097656 578.300781 483.710938 576.09375 490.371094 C 574.316406 495.792969 573.078125 499.472656 573.078125 499.472656 C 573.078125 499.472656 573.089844 484.851562 573.125 479.300781 C 573.125 477.207031 571.695312 476.511719 571.269531 476.386719 C 569.3125 475.816406 565.457031 474.878906 563.839844 474.878906 C 561.824219 474.878906 561.34375 476.007812 561.34375 477.640625 C 561.34375 477.84375 561.011719 496.871094 561.011719 510.171875 L 561.011719 512.042969 C 559.914062 518.164062 556.300781 526.472656 552.378906 526.472656 C 548.457031 526.472656 546.597656 523 546.597656 507.144531 C 546.597656 497.902344 546.882812 493.875 547.011719 487.183594 C 547.089844 483.328125 547.246094 480.367188 547.234375 479.683594 C 547.199219 477.640625 543.628906 476.589844 541.976562 476.210938 C 540.3125 475.816406 538.863281 475.6875 537.722656 475.734375 C 536.136719 475.832031 535.011719 476.875 535.011719 478.335938 L 535.011719 480.554688 C 532.960938 477.324219 529.640625 475.070312 527.421875 474.421875 C 521.484375 472.660156 515.273438 474.230469 510.589844 480.761719 C 506.878906 485.964844 504.636719 491.84375 503.765625 500.296875 C 503.113281 506.480469 503.324219 512.742188 504.480469 518.039062 C 503.082031 524.015625 500.511719 526.472656 497.703125 526.472656 C 493.605469 526.472656 490.65625 519.8125 490.988281 508.285156 C 491.226562 500.710938 492.734375 495.398438 494.398438 487.691406 C 495.113281 484.410156 494.527344 482.699219 493.082031 481.03125 C 491.765625 479.539062 488.9375 478.765625 484.890625 479.699219 C 482.015625 480.378906 477.875 481.109375 474.109375 481.667969 C 474.109375 481.667969 474.332031 480.761719 474.523438 479.160156 C 475.492188 470.773438 466.363281 471.453125 463.457031 474.136719 C 461.710938 475.734375 460.519531 477.621094 460.078125 481.015625 C 459.363281 486.40625 463.761719 488.945312 463.761719 488.945312 C 462.316406 495.539062 458.792969 504.164062 455.125 510.394531 C 453.171875 513.742188 451.675781 516.199219 449.742188 518.832031 C 449.726562 517.863281 449.726562 516.878906 449.726562 515.914062 C 449.691406 502.039062 449.867188 491.117188 449.949219 487.183594 C 450.027344 483.328125 450.1875 480.445312 450.1875 479.761719 C 450.152344 478.269531 449.28125 477.6875 447.4375 476.988281 C 445.820312 476.355469 443.898438 475.894531 441.914062 475.734375 C 439.421875 475.546875 437.898438 476.875 437.945312 478.445312 L 437.945312 480.554688 C 435.882812 477.324219 432.5625 475.070312 430.375 474.421875 C 424.417969 472.660156 418.214844 474.230469 413.53125 480.761719 C 409.832031 485.964844 407.386719 493.242188 406.683594 500.214844 C 406.054688 506.75 406.164062 512.265625 407.050781 516.929688 C 406.101562 521.589844 403.386719 526.472656 400.308594 526.472656 C 396.386719 526.472656 394.144531 523 394.144531 507.144531 C 394.144531 497.902344 394.429688 493.875 394.574219 487.183594 C 394.652344 483.328125 394.796875 480.367188 394.78125 479.683594 C 394.761719 477.640625 391.195312 476.589844 389.527344 476.210938 C 387.796875 475.800781 386.289062 475.671875 385.144531 475.734375 C 383.621094 475.863281 382.558594 477.207031 382.558594 478.238281 L 382.558594 480.554688 C 380.496094 477.324219 377.175781 475.070312 374.96875 474.421875 C 369.03125 472.660156 362.871094 474.261719 358.15625 480.761719 C 355.078125 484.996094 352.585938 489.703125 351.300781 500.136719 C 350.949219 503.152344 350.773438 505.96875 350.792969 508.605469 C 349.566406 516.085938 344.15625 524.714844 339.742188 524.714844 C 337.136719 524.714844 334.664062 519.699219 334.664062 509 C 334.664062 494.761719 335.550781 474.46875 335.707031 472.503906 C 335.707031 472.503906 341.296875 472.40625 342.390625 472.390625 C 345.171875 472.375 347.710938 472.4375 351.410156 472.246094 C 353.285156 472.152344 355.078125 465.476562 353.140625 464.636719 C 352.28125 464.269531 346.121094 463.9375 343.675781 463.890625 C 341.613281 463.84375 335.914062 463.417969 335.914062 463.417969 C 335.914062 463.417969 336.425781 449.957031 336.535156 448.546875 C 336.628906 447.339844 335.105469 446.738281 334.21875 446.371094 C 332.070312 445.453125 330.152344 445.023438 327.898438 444.5625 C 324.738281 443.914062 323.324219 444.550781 323.058594 447.195312 C 322.644531 451.207031 322.421875 462.972656 322.421875 462.972656 C 320.101562 462.972656 312.246094 462.511719 309.941406 462.511719 C 307.800781 462.511719 305.480469 471.710938 308.449219 471.820312 C 311.867188 471.949219 317.785156 472.074219 321.722656 472.183594 C 321.722656 472.183594 321.546875 492.8125 321.546875 499.171875 L 321.546875 501.136719 C 319.375 512.40625 311.769531 518.5 311.769531 518.5 C 313.402344 511.03125 310.070312 505.433594 304.039062 500.710938 C 301.816406 498.949219 297.433594 495.632812 292.527344 492.035156 C 292.527344 492.035156 295.367188 489.230469 297.890625 483.617188 C 299.671875 479.632812 299.753906 475.054688 295.367188 474.054688 C 288.128906 472.390625 282.175781 477.703125 280.382812 483.378906 C 279.019531 487.753906 279.734375 491.019531 282.445312 494.394531 L 283.0625 495.160156 C 281.445312 498.296875 279.191406 502.53125 277.300781 505.8125 C 272.015625 514.929688 268.03125 522.128906 265.03125 522.128906 C 262.617188 522.128906 262.648438 514.820312 262.648438 507.96875 C 262.648438 502.070312 263.09375 493.175781 263.441406 483.980469 C 263.554688 480.953125 262.03125 479.207031 259.476562 477.640625 C 257.917969 476.6875 254.617188 474.816406 252.695312 474.816406 C 249.839844 474.816406 241.550781 475.195312 233.726562 497.789062 C 232.742188 500.644531 230.804688 505.828125 230.804688 505.828125 L 230.980469 478.652344 C 230.980469 478.019531 230.644531 477.417969 229.867188 476.988281 C 228.550781 476.273438 225.011719 474.816406 221.898438 474.816406 C 220.390625 474.816406 219.640625 475.515625 219.640625 476.894531 L 219.390625 519.386719 C 219.390625 522.621094 219.46875 526.394531 219.789062 528.042969 C 220.101562 529.691406 220.628906 531.039062 221.265625 531.847656 C 221.898438 532.625 222.644531 533.226562 223.851562 533.496094 C 224.976562 533.734375 231.183594 534.507812 231.503906 532.148438 C 231.898438 529.308594 231.914062 526.253906 235.171875 514.789062 C 240.25 496.964844 246.855469 488.277344 249.96875 485.183594 C 250.523438 484.648438 251.140625 484.613281 251.109375 485.503906 C 250.964844 489.417969 250.503906 499.171875 250.1875 507.460938 C 249.347656 529.675781 253.378906 533.78125 259.175781 533.78125 C 263.585938 533.78125 269.8125 529.390625 276.496094 518.292969 C 280.667969 511.363281 284.703125 504.59375 287.621094 499.695312 C 289.625 501.5625 291.90625 503.578125 294.179688 505.734375 C 299.464844 510.726562 301.195312 515.484375 300.039062 519.988281 C 299.164062 523.441406 295.847656 526.996094 289.957031 523.539062 C 288.242188 522.539062 287.511719 521.765625 285.78125 520.621094 C 284.859375 520.003906 283.429688 519.828125 282.589844 520.464844 C 280.367188 522.128906 279.113281 524.238281 278.382812 526.855469 C 277.699219 529.40625 280.253906 530.738281 282.90625 531.910156 C 285.175781 532.941406 290.066406 533.84375 293.191406 533.957031 C 305.371094 534.367188 315.117188 528.089844 321.894531 511.917969 C 323.121094 525.886719 328.277344 533.796875 337.25 533.796875 C 343.261719 533.796875 349.28125 526.042969 351.917969 518.417969 C 352.660156 521.523438 353.789062 524.21875 355.234375 526.519531 C 362.160156 537.460938 375.585938 535.113281 382.316406 525.820312 C 384.414062 522.9375 384.734375 521.90625 384.734375 521.90625 C 385.714844 530.675781 392.796875 533.765625 396.847656 533.765625 C 401.402344 533.765625 406.070312 531.609375 409.351562 524.21875 C 409.75 525.027344 410.164062 525.792969 410.640625 526.519531 C 417.546875 537.460938 430.976562 535.113281 437.722656 525.820312 C 438.027344 525.363281 438.3125 524.980469 438.546875 524.617188 L 438.757812 530.386719 C 438.757812 530.386719 434.898438 533.910156 432.535156 536.078125 C 422.136719 545.609375 414.226562 552.839844 413.640625 561.242188 C 412.910156 571.976562 421.609375 575.957031 428.214844 576.476562 C 435.199219 577.035156 441.203125 573.179688 444.882812 567.757812 C 448.121094 563.003906 450.25 552.777344 450.09375 542.660156 C 450.027344 538.601562 449.929688 533.464844 449.835938 527.933594 C 453.503906 523.714844 457.632812 518.351562 461.410156 512.078125 C 465.554688 505.257812 469.964844 496.078125 472.21875 488.925781 C 472.21875 488.925781 476.078125 488.960938 480.175781 488.707031 C 481.492188 488.625 481.875 488.898438 481.617188 489.847656 C 481.332031 491.003906 476.445312 509.855469 480.90625 522.414062 C 483.96875 531.007812 490.84375 533.78125 494.941406 533.78125 C 499.714844 533.78125 504.289062 530.167969 506.734375 524.808594 C 507.035156 525.394531 507.339844 525.980469 507.6875 526.519531 C 514.59375 537.460938 527.976562 535.097656 534.769531 525.820312 C 536.3125 523.714844 537.167969 521.90625 537.167969 521.90625 C 538.628906 530.992188 545.710938 533.796875 549.757812 533.796875 C 553.996094 533.796875 557.996094 532.070312 561.25 524.394531 C 561.378906 527.773438 561.582031 530.53125 561.933594 531.402344 C 562.136719 531.945312 563.347656 532.609375 564.203125 532.941406 C 568.074219 534.367188 572.015625 533.6875 573.457031 533.382812 C 574.472656 533.179688 575.269531 532.386719 575.363281 530.292969 C 575.648438 524.808594 575.472656 515.59375 577.140625 508.730469 C 579.949219 497.253906 582.554688 492.796875 583.792969 490.59375 C 584.476562 489.355469 585.269531 489.148438 585.285156 490.449219 C 585.332031 493.097656 585.476562 500.867188 586.570312 511.332031 C 587.351562 519.003906 588.414062 523.554688 589.238281 525 C 591.554688 529.105469 594.445312 529.296875 596.78125 529.296875 C 598.273438 529.296875 601.382812 528.882812 601.113281 526.265625 C 600.96875 525 601.210938 517.117188 603.953125 505.800781 C 605.765625 498.394531 608.765625 491.71875 609.84375 489.277344 C 610.257812 488.371094 610.433594 489.070312 610.433594 489.210938 C 610.195312 494.300781 609.6875 510.964844 611.75 520.066406 C 614.578125 532.421875 622.71875 533.796875 625.558594 533.796875 C 631.609375 533.796875 636.582031 529.199219 638.246094 517.085938 C 638.660156 514.167969 638.054688 511.917969 636.261719 511.917969 Z M 382.429688 504.433594 C 382.097656 510.839844 380.839844 516.199219 378.84375 520.082031 C 375.191406 527.136719 368 529.359375 364.839844 519.195312 C 362.539062 511.855469 363.316406 501.835938 364.285156 496.425781 C 365.679688 488.402344 369.222656 482.726562 374.746094 483.25 C 380.398438 483.808594 383.160156 491.082031 382.429688 504.433594 Z M 437.816406 504.527344 C 437.503906 510.570312 435.929688 516.65625 434.214844 520.082031 C 430.675781 527.1875 423.277344 529.40625 420.210938 519.195312 C 418.121094 512.203125 418.609375 503.179688 419.65625 497.503906 C 421.007812 490.117188 424.261719 483.25 430.121094 483.25 C 435.820312 483.25 438.628906 489.496094 437.816406 504.527344 Z M 439.265625 545.8125 C 439.183594 556.867188 437.453125 566.539062 433.738281 569.363281 C 428.4375 573.355469 421.308594 570.34375 422.785156 562.289062 C 424.085938 555.15625 430.261719 547.878906 439.28125 538.980469 C 439.28125 538.980469 439.3125 541.011719 439.265625 545.8125 Z M 534.898438 504.59375 C 534.578125 511.238281 533.101562 516.421875 531.277344 520.082031 C 527.738281 527.1875 520.402344 529.390625 517.273438 519.195312 C 515.578125 513.628906 515.496094 504.335938 516.71875 496.585938 C 517.957031 488.6875 521.4375 482.726562 527.183594 483.25 C 532.863281 483.789062 535.519531 491.082031 534.898438 504.59375 Z M 534.898438 504.59375 " fill-opacity="1" fill-rule="nonzero"/></g><g fill="#b900b4" fill-opacity="1"><g transform="translate(81.816057, 675.20413)"><g><path d="M 34.734375 9.21875 C 29.765625 9.21875 25.34375 8.613281 21.46875 7.40625 C 17.59375 6.195312 14.304688 4.390625 11.609375 1.984375 C 8.921875 -0.421875 6.878906 -3.40625 5.484375 -6.96875 C 4.097656 -10.539062 3.40625 -14.664062 3.40625 -19.34375 C 3.40625 -23.976562 4.097656 -28.078125 5.484375 -31.640625 C 6.878906 -35.210938 8.921875 -38.203125 11.609375 -40.609375 C 14.304688 -43.015625 17.59375 -44.832031 21.46875 -46.0625 C 25.34375 -47.289062 29.765625 -47.90625 34.734375 -47.90625 C 39.640625 -47.90625 44.039062 -47.289062 47.9375 -46.0625 C 51.84375 -44.832031 55.140625 -43.015625 57.828125 -40.609375 C 60.523438 -38.203125 62.582031 -35.210938 64 -31.640625 C 65.414062 -28.078125 66.125 -23.976562 66.125 -19.34375 C 66.125 -14.664062 65.414062 -10.539062 64 -6.96875 C 62.582031 -3.40625 60.523438 -0.421875 57.828125 1.984375 C 55.140625 4.390625 51.84375 6.195312 47.9375 7.40625 C 44.039062 8.613281 39.640625 9.21875 34.734375 9.21875 Z M 34.734375 1 C 39.785156 1 44 0.265625 47.375 -1.203125 C 50.757812 -2.671875 53.300781 -4.90625 55 -7.90625 C 56.695312 -10.90625 57.546875 -14.71875 57.546875 -19.34375 C 57.546875 -23.925781 56.695312 -27.726562 55 -30.75 C 53.300781 -33.78125 50.75 -36.023438 47.34375 -37.484375 C 43.9375 -38.953125 39.734375 -39.6875 34.734375 -39.6875 C 29.628906 -39.6875 25.398438 -38.953125 22.046875 -37.484375 C 18.691406 -36.023438 16.175781 -33.796875 14.5 -30.796875 C 12.820312 -27.796875 11.984375 -23.976562 11.984375 -19.34375 C 11.984375 -14.71875 12.820312 -10.90625 14.5 -7.90625 C 16.175781 -4.90625 18.691406 -2.671875 22.046875 -1.203125 C 25.398438 0.265625 29.628906 1 34.734375 1 Z M 32.453125 -11.0625 C 33.117188 -11.0625 33.816406 -11.15625 34.546875 -11.34375 C 35.285156 -11.53125 35.972656 -11.820312 36.609375 -12.21875 C 37.242188 -12.625 37.820312 -13.132812 38.34375 -13.75 C 38.863281 -14.363281 39.265625 -15.117188 39.546875 -16.015625 L 39.40625 -20.703125 L 40.46875 -20.40625 C 40 -19.695312 39.289062 -19.175781 38.34375 -18.84375 C 37.394531 -18.519531 36.378906 -18.25 35.296875 -18.03125 C 34.210938 -17.820312 33.171875 -17.597656 32.171875 -17.359375 C 31.179688 -17.128906 30.367188 -16.765625 29.734375 -16.265625 C 29.097656 -15.765625 28.78125 -15.019531 28.78125 -14.03125 C 28.78125 -13.039062 29.132812 -12.296875 29.84375 -11.796875 C 30.550781 -11.304688 31.421875 -11.0625 32.453125 -11.0625 Z M 29.34375 -5.53125 C 27.925781 -5.53125 26.507812 -5.765625 25.09375 -6.234375 C 23.675781 -6.710938 22.492188 -7.484375 21.546875 -8.546875 C 20.597656 -9.609375 20.125 -11.035156 20.125 -12.828125 C 20.125 -14.523438 20.515625 -15.894531 21.296875 -16.9375 C 22.078125 -17.976562 23.082031 -18.804688 24.3125 -19.421875 C 25.539062 -20.035156 26.875 -20.492188 28.3125 -20.796875 C 29.75 -21.109375 31.128906 -21.359375 32.453125 -21.546875 C 34.347656 -21.828125 35.789062 -22.097656 36.78125 -22.359375 C 37.769531 -22.617188 38.46875 -22.914062 38.875 -23.25 C 39.28125 -23.582031 39.484375 -24.054688 39.484375 -24.671875 C 39.484375 -25.234375 39.335938 -25.75 39.046875 -26.21875 C 38.765625 -26.695312 38.289062 -27.066406 37.625 -27.328125 C 36.96875 -27.585938 36.117188 -27.71875 35.078125 -27.71875 C 34.273438 -27.71875 33.457031 -27.609375 32.625 -27.390625 C 31.800781 -27.179688 31.082031 -26.769531 30.46875 -26.15625 C 29.863281 -25.539062 29.441406 -24.617188 29.203125 -23.390625 L 21.265625 -25.296875 C 21.453125 -26.953125 21.96875 -28.367188 22.8125 -29.546875 C 23.664062 -30.734375 24.742188 -31.703125 26.046875 -32.453125 C 27.347656 -33.210938 28.800781 -33.769531 30.40625 -34.125 C 32.007812 -34.476562 33.6875 -34.65625 35.4375 -34.65625 C 37.84375 -34.65625 39.875 -34.335938 41.53125 -33.703125 C 43.1875 -33.066406 44.519531 -32.15625 45.53125 -30.96875 C 46.550781 -29.789062 47.285156 -28.410156 47.734375 -26.828125 C 48.179688 -25.242188 48.40625 -23.503906 48.40625 -21.609375 L 48.40625 -15.953125 C 48.40625 -15.191406 48.414062 -14.421875 48.4375 -13.640625 C 48.46875 -12.859375 48.484375 -12.085938 48.484375 -11.328125 C 48.484375 -10.578125 48.492188 -9.785156 48.515625 -8.953125 C 48.535156 -8.128906 48.546875 -7.25 48.546875 -6.3125 L 41.609375 -6.3125 C 41.515625 -7.488281 41.40625 -8.644531 41.28125 -9.78125 C 41.164062 -10.914062 41.0625 -12.050781 40.96875 -13.1875 L 39.96875 -13.1875 C 39.59375 -11.476562 38.875 -10.046875 37.8125 -8.890625 C 36.75 -7.734375 35.472656 -6.882812 33.984375 -6.34375 C 32.492188 -5.800781 30.945312 -5.53125 29.34375 -5.53125 Z M 29.34375 -5.53125 "/></g></g></g><g fill="#b900b4" fill-opacity="1"><g transform="translate(151.344473, 675.20413)"><g><path d="M 5.03125 0 L 5.03125 -46.78125 L 15.375 -46.78125 L 15.375 0 Z M 5.03125 0 "/></g></g></g><g fill="#b900b4" fill-opacity="1"><g transform="translate(171.756486, 675.20413)"><g><path d="M 19.484375 1 C 16.984375 1 14.71875 0.757812 12.6875 0.28125 C 10.65625 -0.1875 8.90625 -0.878906 7.4375 -1.796875 C 5.976562 -2.722656 4.796875 -3.835938 3.890625 -5.140625 C 2.992188 -6.441406 2.429688 -7.894531 2.203125 -9.5 L 10.0625 -12.46875 C 10.25 -11.4375 10.753906 -10.457031 11.578125 -9.53125 C 12.410156 -8.613281 13.535156 -7.878906 14.953125 -7.328125 C 16.367188 -6.785156 18.09375 -6.515625 20.125 -6.515625 C 22.25 -6.515625 23.898438 -6.832031 25.078125 -7.46875 C 26.265625 -8.113281 26.859375 -9.023438 26.859375 -10.203125 C 26.859375 -11.097656 26.523438 -11.804688 25.859375 -12.328125 C 25.203125 -12.847656 24.25 -13.296875 23 -13.671875 C 21.75 -14.054688 20.222656 -14.410156 18.421875 -14.734375 C 16.628906 -15.160156 14.820312 -15.625 13 -16.125 C 11.1875 -16.625 9.507812 -17.296875 7.96875 -18.140625 C 6.4375 -18.992188 5.195312 -20.101562 4.25 -21.46875 C 3.300781 -22.84375 2.828125 -24.59375 2.828125 -26.71875 C 2.828125 -29.03125 3.441406 -31.035156 4.671875 -32.734375 C 5.898438 -34.441406 7.707031 -35.78125 10.09375 -36.75 C 12.476562 -37.71875 15.351562 -38.203125 18.71875 -38.203125 C 21.78125 -38.203125 24.46875 -37.785156 26.78125 -36.953125 C 29.101562 -36.128906 30.992188 -34.925781 32.453125 -33.34375 C 33.921875 -31.757812 34.890625 -29.859375 35.359375 -27.640625 L 27.078125 -25.015625 C 26.890625 -26.203125 26.441406 -27.226562 25.734375 -28.09375 C 25.023438 -28.96875 24.066406 -29.617188 22.859375 -30.046875 C 21.648438 -30.472656 20.242188 -30.6875 18.640625 -30.6875 C 16.648438 -30.6875 15.097656 -30.351562 13.984375 -29.6875 C 12.878906 -29.03125 12.328125 -28.160156 12.328125 -27.078125 C 12.328125 -26.179688 12.691406 -25.445312 13.421875 -24.875 C 14.160156 -24.3125 15.175781 -23.851562 16.46875 -23.5 C 17.769531 -23.144531 19.320312 -22.773438 21.125 -22.390625 C 23.007812 -22.015625 24.835938 -21.578125 26.609375 -21.078125 C 28.378906 -20.585938 30 -19.941406 31.46875 -19.140625 C 32.9375 -18.335938 34.101562 -17.273438 34.96875 -15.953125 C 35.84375 -14.628906 36.28125 -12.898438 36.28125 -10.765625 C 36.28125 -8.316406 35.617188 -6.21875 34.296875 -4.46875 C 32.972656 -2.71875 31.0625 -1.367188 28.5625 -0.421875 C 26.0625 0.523438 23.035156 1 19.484375 1 Z M 19.484375 1 "/></g></g></g><g fill="#b900b4" fill-opacity="1"><g transform="translate(210.099891, 675.20413)"><g><path d="M 4.53125 0 L 4.53125 -50.53125 L 14.734375 -50.53125 L 14.734375 -39.125 C 14.734375 -38.175781 14.695312 -37.15625 14.625 -36.0625 C 14.5625 -34.976562 14.457031 -33.867188 14.3125 -32.734375 C 14.175781 -31.609375 14.023438 -30.476562 13.859375 -29.34375 C 13.691406 -28.207031 13.488281 -27.097656 13.25 -26.015625 L 14.734375 -26.015625 C 15.398438 -28.566406 16.238281 -30.75 17.25 -32.5625 C 18.269531 -34.382812 19.59375 -35.78125 21.21875 -36.75 C 22.851562 -37.71875 24.898438 -38.203125 27.359375 -38.203125 C 29.859375 -38.203125 31.910156 -37.738281 33.515625 -36.8125 C 35.128906 -35.894531 36.382812 -34.703125 37.28125 -33.234375 C 38.175781 -31.773438 38.835938 -30.179688 39.265625 -28.453125 C 39.691406 -26.734375 39.960938 -25.046875 40.078125 -23.390625 C 40.191406 -21.734375 40.25 -20.289062 40.25 -19.0625 L 40.25 0 L 30.046875 0 L 30.046875 -17.9375 C 30.046875 -19.675781 29.925781 -21.265625 29.6875 -22.703125 C 29.457031 -24.148438 29.082031 -25.394531 28.5625 -26.4375 C 28.039062 -27.476562 27.34375 -28.28125 26.46875 -28.84375 C 25.59375 -29.414062 24.519531 -29.703125 23.25 -29.703125 C 21.351562 -29.703125 19.789062 -29.132812 18.5625 -28 C 17.332031 -26.863281 16.398438 -25.3125 15.765625 -23.34375 C 15.128906 -21.382812 14.785156 -19.15625 14.734375 -16.65625 L 14.734375 0 Z M 4.53125 0 "/></g></g></g><g fill="#b900b4" fill-opacity="1"><g transform="translate(254.396798, 675.20413)"><g><path d="M 4.53125 0 L 4.53125 -37.203125 L 14.734375 -37.203125 L 14.734375 0 Z M 9.640625 -42.609375 C 7.660156 -42.609375 6.140625 -43.03125 5.078125 -43.875 C 4.015625 -44.726562 3.484375 -45.9375 3.484375 -47.5 C 3.484375 -49.144531 4.015625 -50.394531 5.078125 -51.25 C 6.140625 -52.101562 7.660156 -52.53125 9.640625 -52.53125 C 11.671875 -52.53125 13.21875 -52.101562 14.28125 -51.25 C 15.351562 -50.394531 15.890625 -49.144531 15.890625 -47.5 C 15.890625 -45.9375 15.351562 -44.726562 14.28125 -43.875 C 13.21875 -43.03125 11.671875 -42.609375 9.640625 -42.609375 Z M 9.640625 -42.609375 "/></g></g></g><g fill="#b900b4" fill-opacity="1"><g transform="translate(273.674816, 675.20413)"><g><path d="M 4.53125 0 L 4.53125 -37.203125 L 12.90625 -37.203125 L 12.828125 -25.65625 L 14.171875 -25.65625 C 14.785156 -28.726562 15.695312 -31.171875 16.90625 -32.984375 C 18.113281 -34.804688 19.578125 -36.128906 21.296875 -36.953125 C 23.023438 -37.785156 24.972656 -38.203125 27.140625 -38.203125 C 29.597656 -38.203125 31.617188 -37.765625 33.203125 -36.890625 C 34.785156 -36.015625 36.050781 -34.867188 37 -33.453125 C 37.945312 -32.035156 38.65625 -30.488281 39.125 -28.8125 C 39.59375 -27.132812 39.894531 -25.46875 40.03125 -23.8125 C 40.175781 -22.15625 40.25 -20.664062 40.25 -19.34375 L 40.25 0 L 30.046875 0 L 30.046875 -18.140625 C 30.046875 -19.035156 30 -20.117188 29.90625 -21.390625 C 29.8125 -22.671875 29.5625 -23.9375 29.15625 -25.1875 C 28.757812 -26.445312 28.097656 -27.5 27.171875 -28.34375 C 26.253906 -29.195312 24.96875 -29.625 23.3125 -29.625 C 21.425781 -29.625 19.851562 -29.046875 18.59375 -27.890625 C 17.34375 -26.734375 16.382812 -25.160156 15.71875 -23.171875 C 15.0625 -21.191406 14.734375 -18.972656 14.734375 -16.515625 L 14.734375 0 Z M 4.53125 0 "/></g></g></g><g fill="#b900b4" fill-opacity="1"><g transform="translate(317.971723, 675.20413)"><g><path d="M 18 1 C 14.925781 1 12.234375 0.207031 9.921875 -1.375 C 7.609375 -2.957031 5.8125 -5.222656 4.53125 -8.171875 C 3.257812 -11.128906 2.625 -14.644531 2.625 -18.71875 C 2.625 -22.488281 3.191406 -25.835938 4.328125 -28.765625 C 5.460938 -31.703125 7.140625 -33.992188 9.359375 -35.640625 C 11.578125 -37.296875 14.316406 -38.125 17.578125 -38.125 C 19.984375 -38.125 22 -37.660156 23.625 -36.734375 C 25.257812 -35.816406 26.609375 -34.484375 27.671875 -32.734375 C 28.734375 -30.992188 29.570312 -28.894531 30.1875 -26.4375 L 31.75 -26.4375 C 31.46875 -27.945312 31.195312 -29.429688 30.9375 -30.890625 C 30.675781 -32.359375 30.460938 -33.753906 30.296875 -35.078125 C 30.128906 -36.398438 30.046875 -37.5625 30.046875 -38.5625 L 30.046875 -50.53125 L 40.328125 -50.53125 L 40.328125 0 L 31.75 0 L 31.75 -10.84375 L 30.40625 -10.84375 C 29.882812 -8.195312 29.078125 -6 27.984375 -4.25 C 26.898438 -2.5 25.53125 -1.1875 23.875 -0.3125 C 22.226562 0.5625 20.269531 1 18 1 Z M 21.46875 -7.375 C 22.9375 -7.375 24.210938 -7.703125 25.296875 -8.359375 C 26.390625 -9.023438 27.289062 -9.890625 28 -10.953125 C 28.707031 -12.015625 29.222656 -13.160156 29.546875 -14.390625 C 29.878906 -15.617188 30.046875 -16.800781 30.046875 -17.9375 L 30.046875 -19.203125 C 30.046875 -20.148438 29.925781 -21.117188 29.6875 -22.109375 C 29.457031 -23.097656 29.101562 -24.050781 28.625 -24.96875 C 28.15625 -25.894531 27.566406 -26.722656 26.859375 -27.453125 C 26.148438 -28.191406 25.320312 -28.773438 24.375 -29.203125 C 23.4375 -29.628906 22.421875 -29.84375 21.328125 -29.84375 C 19.628906 -29.84375 18.1875 -29.367188 17 -28.421875 C 15.820312 -27.472656 14.914062 -26.160156 14.28125 -24.484375 C 13.644531 -22.804688 13.328125 -20.832031 13.328125 -18.5625 C 13.328125 -16.34375 13.65625 -14.382812 14.3125 -12.6875 C 14.976562 -10.988281 15.925781 -9.675781 17.15625 -8.75 C 18.382812 -7.832031 19.820312 -7.375 21.46875 -7.375 Z M 21.46875 -7.375 "/></g></g></g><g fill="#b900b4" fill-opacity="1"><g transform="translate(362.835627, 675.20413)"><g><path d="M 21.828125 1 C 18.753906 1 16.023438 0.570312 13.640625 -0.28125 C 11.253906 -1.132812 9.234375 -2.375 7.578125 -4 C 5.929688 -5.632812 4.679688 -7.617188 3.828125 -9.953125 C 2.972656 -12.296875 2.546875 -14.957031 2.546875 -17.9375 C 2.546875 -20.863281 2.957031 -23.566406 3.78125 -26.046875 C 4.613281 -28.523438 5.820312 -30.671875 7.40625 -32.484375 C 8.988281 -34.304688 10.9375 -35.710938 13.25 -36.703125 C 15.5625 -37.703125 18.1875 -38.203125 21.125 -38.203125 C 24 -38.203125 26.535156 -37.726562 28.734375 -36.78125 C 30.929688 -35.832031 32.765625 -34.4375 34.234375 -32.59375 C 35.703125 -30.757812 36.773438 -28.519531 37.453125 -25.875 C 38.140625 -23.226562 38.363281 -20.175781 38.125 -16.71875 L 9.140625 -16.515625 L 9.140625 -22.109375 L 32.109375 -22.328125 L 28.703125 -19.421875 C 29.035156 -21.921875 28.878906 -23.972656 28.234375 -25.578125 C 27.597656 -27.191406 26.65625 -28.375 25.40625 -29.125 C 24.15625 -29.882812 22.75 -30.265625 21.1875 -30.265625 C 19.394531 -30.265625 17.820312 -29.789062 16.46875 -28.84375 C 15.125 -27.894531 14.085938 -26.507812 13.359375 -24.6875 C 12.628906 -22.875 12.265625 -20.691406 12.265625 -18.140625 C 12.265625 -14.128906 13.132812 -11.1875 14.875 -9.3125 C 16.625 -7.445312 18.941406 -6.515625 21.828125 -6.515625 C 23.148438 -6.515625 24.269531 -6.691406 25.1875 -7.046875 C 26.113281 -7.398438 26.867188 -7.859375 27.453125 -8.421875 C 28.046875 -8.992188 28.507812 -9.632812 28.84375 -10.34375 C 29.175781 -11.050781 29.4375 -11.785156 29.625 -12.546875 L 38.5625 -10.703125 C 38.226562 -8.953125 37.644531 -7.367188 36.8125 -5.953125 C 35.988281 -4.535156 34.90625 -3.304688 33.5625 -2.265625 C 32.21875 -1.222656 30.578125 -0.421875 28.640625 0.140625 C 26.703125 0.710938 24.429688 1 21.828125 1 Z M 21.828125 1 "/></g></g></g><g fill="#b900b4" fill-opacity="1"><g transform="translate(403.730515, 675.20413)"><g><path d="M 4.53125 0 L 4.53125 -37.203125 L 13.046875 -37.203125 L 12.96875 -24.3125 L 14.3125 -24.3125 C 14.695312 -27.519531 15.335938 -30.140625 16.234375 -32.171875 C 17.128906 -34.203125 18.390625 -35.691406 20.015625 -36.640625 C 21.648438 -37.585938 23.671875 -38.0625 26.078125 -38.0625 C 26.554688 -38.0625 27.050781 -38.035156 27.5625 -37.984375 C 28.082031 -37.941406 28.675781 -37.847656 29.34375 -37.703125 L 28.984375 -26.859375 C 28.179688 -27.191406 27.363281 -27.425781 26.53125 -27.5625 C 25.707031 -27.707031 24.941406 -27.78125 24.234375 -27.78125 C 22.441406 -27.78125 20.882812 -27.351562 19.5625 -26.5 C 18.238281 -25.65625 17.1875 -24.425781 16.40625 -22.8125 C 15.625 -21.207031 15.066406 -19.226562 14.734375 -16.875 L 14.734375 0 Z M 4.53125 0 "/></g></g></g><g fill="#b900b4" fill-opacity="1"><g transform="translate(434.206771, 675.20413)"><g><path d="M 19.484375 1 C 16.984375 1 14.71875 0.757812 12.6875 0.28125 C 10.65625 -0.1875 8.90625 -0.878906 7.4375 -1.796875 C 5.976562 -2.722656 4.796875 -3.835938 3.890625 -5.140625 C 2.992188 -6.441406 2.429688 -7.894531 2.203125 -9.5 L 10.0625 -12.46875 C 10.25 -11.4375 10.753906 -10.457031 11.578125 -9.53125 C 12.410156 -8.613281 13.535156 -7.878906 14.953125 -7.328125 C 16.367188 -6.785156 18.09375 -6.515625 20.125 -6.515625 C 22.25 -6.515625 23.898438 -6.832031 25.078125 -7.46875 C 26.265625 -8.113281 26.859375 -9.023438 26.859375 -10.203125 C 26.859375 -11.097656 26.523438 -11.804688 25.859375 -12.328125 C 25.203125 -12.847656 24.25 -13.296875 23 -13.671875 C 21.75 -14.054688 20.222656 -14.410156 18.421875 -14.734375 C 16.628906 -15.160156 14.820312 -15.625 13 -16.125 C 11.1875 -16.625 9.507812 -17.296875 7.96875 -18.140625 C 6.4375 -18.992188 5.195312 -20.101562 4.25 -21.46875 C 3.300781 -22.84375 2.828125 -24.59375 2.828125 -26.71875 C 2.828125 -29.03125 3.441406 -31.035156 4.671875 -32.734375 C 5.898438 -34.441406 7.707031 -35.78125 10.09375 -36.75 C 12.476562 -37.71875 15.351562 -38.203125 18.71875 -38.203125 C 21.78125 -38.203125 24.46875 -37.785156 26.78125 -36.953125 C 29.101562 -36.128906 30.992188 -34.925781 32.453125 -33.34375 C 33.921875 -31.757812 34.890625 -29.859375 35.359375 -27.640625 L 27.078125 -25.015625 C 26.890625 -26.203125 26.441406 -27.226562 25.734375 -28.09375 C 25.023438 -28.96875 24.066406 -29.617188 22.859375 -30.046875 C 21.648438 -30.472656 20.242188 -30.6875 18.640625 -30.6875 C 16.648438 -30.6875 15.097656 -30.351562 13.984375 -29.6875 C 12.878906 -29.03125 12.328125 -28.160156 12.328125 -27.078125 C 12.328125 -26.179688 12.691406 -25.445312 13.421875 -24.875 C 14.160156 -24.3125 15.175781 -23.851562 16.46875 -23.5 C 17.769531 -23.144531 19.320312 -22.773438 21.125 -22.390625 C 23.007812 -22.015625 24.835938 -21.578125 26.609375 -21.078125 C 28.378906 -20.585938 30 -19.941406 31.46875 -19.140625 C 32.9375 -18.335938 34.101562 -17.273438 34.96875 -15.953125 C 35.84375 -14.628906 36.28125 -12.898438 36.28125 -10.765625 C 36.28125 -8.316406 35.617188 -6.21875 34.296875 -4.46875 C 32.972656 -2.71875 31.0625 -1.367188 28.5625 -0.421875 C 26.0625 0.523438 23.035156 1 19.484375 1 Z M 19.484375 1 "/></g></g></g><g fill="#b900b4" fill-opacity="1"><g transform="translate(472.550199, 675.20413)"><g><path d="M 0 10.921875 L 0 1.703125 L 39.265625 1.703125 L 39.265625 10.921875 Z M 0 10.921875 "/></g></g></g><g fill="#b900b4" fill-opacity="1"><g transform="translate(511.814967, 675.20413)"><g><path d="M 21.828125 1 C 18.753906 1 16.023438 0.570312 13.640625 -0.28125 C 11.253906 -1.132812 9.234375 -2.375 7.578125 -4 C 5.929688 -5.632812 4.679688 -7.617188 3.828125 -9.953125 C 2.972656 -12.296875 2.546875 -14.957031 2.546875 -17.9375 C 2.546875 -20.863281 2.957031 -23.566406 3.78125 -26.046875 C 4.613281 -28.523438 5.820312 -30.671875 7.40625 -32.484375 C 8.988281 -34.304688 10.9375 -35.710938 13.25 -36.703125 C 15.5625 -37.703125 18.1875 -38.203125 21.125 -38.203125 C 24 -38.203125 26.535156 -37.726562 28.734375 -36.78125 C 30.929688 -35.832031 32.765625 -34.4375 34.234375 -32.59375 C 35.703125 -30.757812 36.773438 -28.519531 37.453125 -25.875 C 38.140625 -23.226562 38.363281 -20.175781 38.125 -16.71875 L 9.140625 -16.515625 L 9.140625 -22.109375 L 32.109375 -22.328125 L 28.703125 -19.421875 C 29.035156 -21.921875 28.878906 -23.972656 28.234375 -25.578125 C 27.597656 -27.191406 26.65625 -28.375 25.40625 -29.125 C 24.15625 -29.882812 22.75 -30.265625 21.1875 -30.265625 C 19.394531 -30.265625 17.820312 -29.789062 16.46875 -28.84375 C 15.125 -27.894531 14.085938 -26.507812 13.359375 -24.6875 C 12.628906 -22.875 12.265625 -20.691406 12.265625 -18.140625 C 12.265625 -14.128906 13.132812 -11.1875 14.875 -9.3125 C 16.625 -7.445312 18.941406 -6.515625 21.828125 -6.515625 C 23.148438 -6.515625 24.269531 -6.691406 25.1875 -7.046875 C 26.113281 -7.398438 26.867188 -7.859375 27.453125 -8.421875 C 28.046875 -8.992188 28.507812 -9.632812 28.84375 -10.34375 C 29.175781 -11.050781 29.4375 -11.785156 29.625 -12.546875 L 38.5625 -10.703125 C 38.226562 -8.953125 37.644531 -7.367188 36.8125 -5.953125 C 35.988281 -4.535156 34.90625 -3.304688 33.5625 -2.265625 C 32.21875 -1.222656 30.578125 -0.421875 28.640625 0.140625 C 26.703125 0.710938 24.429688 1 21.828125 1 Z M 21.828125 1 "/></g></g></g><g fill="#b900b4" fill-opacity="1"><g transform="translate(552.709878, 675.20413)"><g><path d="M 19.484375 1 C 16.984375 1 14.71875 0.757812 12.6875 0.28125 C 10.65625 -0.1875 8.90625 -0.878906 7.4375 -1.796875 C 5.976562 -2.722656 4.796875 -3.835938 3.890625 -5.140625 C 2.992188 -6.441406 2.429688 -7.894531 2.203125 -9.5 L 10.0625 -12.46875 C 10.25 -11.4375 10.753906 -10.457031 11.578125 -9.53125 C 12.410156 -8.613281 13.535156 -7.878906 14.953125 -7.328125 C 16.367188 -6.785156 18.09375 -6.515625 20.125 -6.515625 C 22.25 -6.515625 23.898438 -6.832031 25.078125 -7.46875 C 26.265625 -8.113281 26.859375 -9.023438 26.859375 -10.203125 C 26.859375 -11.097656 26.523438 -11.804688 25.859375 -12.328125 C 25.203125 -12.847656 24.25 -13.296875 23 -13.671875 C 21.75 -14.054688 20.222656 -14.410156 18.421875 -14.734375 C 16.628906 -15.160156 14.820312 -15.625 13 -16.125 C 11.1875 -16.625 9.507812 -17.296875 7.96875 -18.140625 C 6.4375 -18.992188 5.195312 -20.101562 4.25 -21.46875 C 3.300781 -22.84375 2.828125 -24.59375 2.828125 -26.71875 C 2.828125 -29.03125 3.441406 -31.035156 4.671875 -32.734375 C 5.898438 -34.441406 7.707031 -35.78125 10.09375 -36.75 C 12.476562 -37.71875 15.351562 -38.203125 18.71875 -38.203125 C 21.78125 -38.203125 24.46875 -37.785156 26.78125 -36.953125 C 29.101562 -36.128906 30.992188 -34.925781 32.453125 -33.34375 C 33.921875 -31.757812 34.890625 -29.859375 35.359375 -27.640625 L 27.078125 -25.015625 C 26.890625 -26.203125 26.441406 -27.226562 25.734375 -28.09375 C 25.023438 -28.96875 24.066406 -29.617188 22.859375 -30.046875 C 21.648438 -30.472656 20.242188 -30.6875 18.640625 -30.6875 C 16.648438 -30.6875 15.097656 -30.351562 13.984375 -29.6875 C 12.878906 -29.03125 12.328125 -28.160156 12.328125 -27.078125 C 12.328125 -26.179688 12.691406 -25.445312 13.421875 -24.875 C 14.160156 -24.3125 15.175781 -23.851562 16.46875 -23.5 C 17.769531 -23.144531 19.320312 -22.773438 21.125 -22.390625 C 23.007812 -22.015625 24.835938 -21.578125 26.609375 -21.078125 C 28.378906 -20.585938 30 -19.941406 31.46875 -19.140625 C 32.9375 -18.335938 34.101562 -17.273438 34.96875 -15.953125 C 35.84375 -14.628906 36.28125 -12.898438 36.28125 -10.765625 C 36.28125 -8.316406 35.617188 -6.21875 34.296875 -4.46875 C 32.972656 -2.71875 31.0625 -1.367188 28.5625 -0.421875 C 26.0625 0.523438 23.035156 1 19.484375 1 Z M 19.484375 1 "/></g></g></g><g fill="#b900b4" fill-opacity="1"><g transform="translate(591.053305, 675.20413)"><g><path d="M 18.421875 0.84375 C 16.390625 0.84375 14.617188 0.582031 13.109375 0.0625 C 11.597656 -0.445312 10.332031 -1.257812 9.3125 -2.375 C 8.300781 -3.488281 7.535156 -4.914062 7.015625 -6.65625 C 6.492188 -8.40625 6.234375 -10.488281 6.234375 -12.90625 L 6.234375 -29.203125 L 0.921875 -29.203125 L 1.140625 -37.0625 L 4.53125 -37.0625 C 6.09375 -37.113281 7.25 -37.382812 8 -37.875 C 8.757812 -38.375 9.210938 -39.265625 9.359375 -40.546875 L 10.203125 -45.5 L 16.015625 -45.5 L 16.015625 -37.203125 L 25.375 -37.203125 L 25.375 -28.921875 L 16.015625 -28.921875 L 16.015625 -13.390625 C 16.015625 -11.453125 16.488281 -10.148438 17.4375 -9.484375 C 18.382812 -8.828125 19.539062 -8.5 20.90625 -8.5 C 21.757812 -8.5 22.609375 -8.601562 23.453125 -8.8125 C 24.304688 -9.03125 25.039062 -9.328125 25.65625 -9.703125 L 25.65625 -0.21875 C 24.1875 0.207031 22.835938 0.488281 21.609375 0.625 C 20.390625 0.769531 19.328125 0.84375 18.421875 0.84375 Z M 18.421875 0.84375 "/></g></g></g><g fill="#b900b4" fill-opacity="1"><g transform="translate(618.978078, 675.20413)"><g><path d="M 13.328125 1 C 11.242188 1 9.398438 0.597656 7.796875 -0.203125 C 6.191406 -1.015625 4.925781 -2.1875 4 -3.71875 C 3.082031 -5.257812 2.625 -7.140625 2.625 -9.359375 C 2.625 -11.953125 3.203125 -14.003906 4.359375 -15.515625 C 5.515625 -17.035156 7 -18.195312 8.8125 -19 C 10.632812 -19.800781 12.5625 -20.378906 14.59375 -20.734375 C 16.625 -21.085938 18.515625 -21.378906 20.265625 -21.609375 C 21.878906 -21.847656 23.179688 -22.097656 24.171875 -22.359375 C 25.160156 -22.617188 25.878906 -22.992188 26.328125 -23.484375 C 26.773438 -23.984375 27 -24.660156 27 -25.515625 C 27 -26.460938 26.785156 -27.289062 26.359375 -28 C 25.941406 -28.707031 25.304688 -29.285156 24.453125 -29.734375 C 23.597656 -30.179688 22.488281 -30.40625 21.125 -30.40625 C 19.800781 -30.40625 18.546875 -30.164062 17.359375 -29.6875 C 16.179688 -29.21875 15.175781 -28.5 14.34375 -27.53125 C 13.519531 -26.5625 12.96875 -25.347656 12.6875 -23.890625 L 3.609375 -26.4375 C 4.128906 -28.46875 4.921875 -30.210938 5.984375 -31.671875 C 7.046875 -33.140625 8.332031 -34.359375 9.84375 -35.328125 C 11.363281 -36.296875 13.066406 -37.015625 14.953125 -37.484375 C 16.847656 -37.960938 18.90625 -38.203125 21.125 -38.203125 C 24 -38.203125 26.453125 -37.847656 28.484375 -37.140625 C 30.523438 -36.429688 32.171875 -35.351562 33.421875 -33.90625 C 34.671875 -32.46875 35.585938 -30.71875 36.171875 -28.65625 C 36.765625 -26.601562 37.0625 -24.253906 37.0625 -21.609375 L 37.0625 -15.234375 C 37.0625 -13.628906 37.082031 -11.960938 37.125 -10.234375 C 37.175781 -8.515625 37.257812 -6.800781 37.375 -5.09375 C 37.5 -3.394531 37.632812 -1.695312 37.78125 0 L 28.78125 0 C 28.632812 -1.269531 28.476562 -2.671875 28.3125 -4.203125 C 28.144531 -5.742188 28.039062 -7.320312 28 -8.9375 L 26.796875 -8.9375 C 26.128906 -7.132812 25.179688 -5.460938 23.953125 -3.921875 C 22.722656 -2.390625 21.207031 -1.1875 19.40625 -0.3125 C 17.613281 0.5625 15.585938 1 13.328125 1 Z M 17.640625 -6.453125 C 18.546875 -6.453125 19.457031 -6.601562 20.375 -6.90625 C 21.300781 -7.21875 22.195312 -7.679688 23.0625 -8.296875 C 23.9375 -8.910156 24.738281 -9.6875 25.46875 -10.625 C 26.207031 -11.570312 26.789062 -12.640625 27.21875 -13.828125 L 27.078125 -19.421875 L 28.703125 -19.140625 C 27.898438 -18.523438 26.941406 -18.039062 25.828125 -17.6875 C 24.722656 -17.332031 23.566406 -17.054688 22.359375 -16.859375 C 21.148438 -16.671875 19.957031 -16.457031 18.78125 -16.21875 C 17.601562 -15.988281 16.539062 -15.679688 15.59375 -15.296875 C 14.644531 -14.921875 13.882812 -14.398438 13.3125 -13.734375 C 12.75 -13.078125 12.46875 -12.1875 12.46875 -11.0625 C 12.46875 -9.644531 12.953125 -8.519531 13.921875 -7.6875 C 14.890625 -6.863281 16.128906 -6.453125 17.640625 -6.453125 Z M 17.640625 -6.453125 "/></g></g></g><g fill="#b900b4" fill-opacity="1"><g transform="translate(660.156482, 675.20413)"><g><path d="M 18.421875 0.84375 C 16.390625 0.84375 14.617188 0.582031 13.109375 0.0625 C 11.597656 -0.445312 10.332031 -1.257812 9.3125 -2.375 C 8.300781 -3.488281 7.535156 -4.914062 7.015625 -6.65625 C 6.492188 -8.40625 6.234375 -10.488281 6.234375 -12.90625 L 6.234375 -29.203125 L 0.921875 -29.203125 L 1.140625 -37.0625 L 4.53125 -37.0625 C 6.09375 -37.113281 7.25 -37.382812 8 -37.875 C 8.757812 -38.375 9.210938 -39.265625 9.359375 -40.546875 L 10.203125 -45.5 L 16.015625 -45.5 L 16.015625 -37.203125 L 25.375 -37.203125 L 25.375 -28.921875 L 16.015625 -28.921875 L 16.015625 -13.390625 C 16.015625 -11.453125 16.488281 -10.148438 17.4375 -9.484375 C 18.382812 -8.828125 19.539062 -8.5 20.90625 -8.5 C 21.757812 -8.5 22.609375 -8.601562 23.453125 -8.8125 C 24.304688 -9.03125 25.039062 -9.328125 25.65625 -9.703125 L 25.65625 -0.21875 C 24.1875 0.207031 22.835938 0.488281 21.609375 0.625 C 20.390625 0.769531 19.328125 0.84375 18.421875 0.84375 Z M 18.421875 0.84375 "/></g></g></g><g fill="#b900b4" fill-opacity="1"><g transform="translate(688.081254, 675.20413)"><g><path d="M 21.828125 1 C 18.753906 1 16.023438 0.570312 13.640625 -0.28125 C 11.253906 -1.132812 9.234375 -2.375 7.578125 -4 C 5.929688 -5.632812 4.679688 -7.617188 3.828125 -9.953125 C 2.972656 -12.296875 2.546875 -14.957031 2.546875 -17.9375 C 2.546875 -20.863281 2.957031 -23.566406 3.78125 -26.046875 C 4.613281 -28.523438 5.820312 -30.671875 7.40625 -32.484375 C 8.988281 -34.304688 10.9375 -35.710938 13.25 -36.703125 C 15.5625 -37.703125 18.1875 -38.203125 21.125 -38.203125 C 24 -38.203125 26.535156 -37.726562 28.734375 -36.78125 C 30.929688 -35.832031 32.765625 -34.4375 34.234375 -32.59375 C 35.703125 -30.757812 36.773438 -28.519531 37.453125 -25.875 C 38.140625 -23.226562 38.363281 -20.175781 38.125 -16.71875 L 9.140625 -16.515625 L 9.140625 -22.109375 L 32.109375 -22.328125 L 28.703125 -19.421875 C 29.035156 -21.921875 28.878906 -23.972656 28.234375 -25.578125 C 27.597656 -27.191406 26.65625 -28.375 25.40625 -29.125 C 24.15625 -29.882812 22.75 -30.265625 21.1875 -30.265625 C 19.394531 -30.265625 17.820312 -29.789062 16.46875 -28.84375 C 15.125 -27.894531 14.085938 -26.507812 13.359375 -24.6875 C 12.628906 -22.875 12.265625 -20.691406 12.265625 -18.140625 C 12.265625 -14.128906 13.132812 -11.1875 14.875 -9.3125 C 16.625 -7.445312 18.941406 -6.515625 21.828125 -6.515625 C 23.148438 -6.515625 24.269531 -6.691406 25.1875 -7.046875 C 26.113281 -7.398438 26.867188 -7.859375 27.453125 -8.421875 C 28.046875 -8.992188 28.507812 -9.632812 28.84375 -10.34375 C 29.175781 -11.050781 29.4375 -11.785156 29.625 -12.546875 L 38.5625 -10.703125 C 38.226562 -8.953125 37.644531 -7.367188 36.8125 -5.953125 C 35.988281 -4.535156 34.90625 -3.304688 33.5625 -2.265625 C 32.21875 -1.222656 30.578125 -0.421875 28.640625 0.140625 C 26.703125 0.710938 24.429688 1 21.828125 1 Z M 21.828125 1 "/></g></g></g></svg>