<svg xmlns="http://www.w3.org/2000/svg" xmlns:xlink="http://www.w3.org/1999/xlink" width="1080" zoomAndPan="magnify" viewBox="0 0 810 809.999993" height="1080" preserveAspectRatio="xMidYMid meet" version="1.0"><defs><g/><clipPath id="f1709e58dc"><path d="M 88.734375 405 L 720.984375 405 L 720.984375 526.5 L 88.734375 526.5 Z M 88.734375 405 " clip-rule="nonzero"/></clipPath><clipPath id="da89c7fbc1"><path d="M 298 117.75 L 511 117.75 L 511 331 L 298 331 Z M 298 117.75 " clip-rule="nonzero"/></clipPath></defs><rect x="-81" width="972" fill="#ffffff" y="-80.999999" height="971.999992" fill-opacity="1"/><rect x="-81" width="972" fill="#ffffff" y="-80.999999" height="971.999992" fill-opacity="1"/><g clip-path="url(#f1709e58dc)"><path fill="#25d366" d="M 178.851562 471.703125 L 178.597656 471.703125 L 162.105469 405.277344 L 142.253906 405.277344 L 125.492188 471 L 125.21875 471 L 109.957031 405.3125 L 88.734375 405.3125 L 114.273438 501.808594 L 135.769531 501.808594 L 151.847656 436.125 L 152.101562 436.125 L 168.449219 501.808594 L 189.53125 501.808594 L 215.484375 405.3125 L 194.675781 405.3125 Z M 280.199219 437.785156 C 278.152344 435.1875 275.457031 433.160156 272.378906 431.921875 C 268.324219 430.445312 264.027344 429.78125 259.71875 429.96875 C 255.859375 430.023438 252.070312 430.972656 248.644531 432.746094 C 244.71875 434.699219 241.480469 437.785156 239.324219 441.597656 L 238.910156 441.597656 L 238.910156 405.21875 L 219.800781 405.21875 L 219.800781 501.714844 L 238.984375 501.714844 L 238.984375 465.144531 C 238.984375 458.03125 240.15625 452.933594 242.503906 449.808594 C 244.851562 446.683594 248.625 445.164062 253.863281 445.164062 C 258.449219 445.164062 261.679688 446.570312 263.453125 449.421875 C 265.226562 452.277344 266.148438 456.554688 266.148438 462.316406 L 266.148438 501.78125 L 285.332031 501.78125 L 285.332031 458.800781 C 285.359375 454.828125 284.976562 450.867188 284.175781 446.984375 C 283.566406 443.640625 282.207031 440.507812 280.199219 437.785156 Z M 359.238281 486.117188 L 359.238281 449.816406 C 359.425781 446.203125 358.429688 442.621094 356.402344 439.617188 C 354.515625 437.035156 352.007812 434.96875 349.109375 433.601562 C 345.992188 432.109375 342.660156 431.132812 339.246094 430.691406 C 335.707031 430.203125 332.148438 429.957031 328.574219 429.949219 C 324.695312 429.949219 320.828125 430.335938 317.027344 431.105469 C 313.378906 431.816406 309.875 433.132812 306.675781 435.007812 C 303.644531 436.78125 301.054688 439.230469 299.109375 442.160156 C 297.007812 445.539062 295.84375 449.414062 295.730469 453.394531 L 314.917969 453.394531 C 314.933594 451.855469 315.28125 450.324219 315.929688 448.925781 C 316.585938 447.527344 317.527344 446.289062 318.699219 445.285156 C 321.328125 443.53125 324.453125 442.667969 327.605469 442.84375 C 329.210938 442.84375 330.816406 442.949219 332.410156 443.171875 C 333.792969 443.371094 335.125 443.828125 336.316406 444.542969 C 337.460938 445.21875 338.398438 446.203125 339.027344 447.378906 C 339.769531 448.90625 340.117188 450.597656 340.042969 452.304688 C 340.136719 453.148438 340.023438 453.992188 339.722656 454.78125 C 339.421875 455.570312 338.925781 456.273438 338.289062 456.835938 C 336.777344 458 335.019531 458.808594 333.152344 459.203125 C 330.703125 459.792969 328.214844 460.207031 325.710938 460.414062 C 322.914062 460.683594 320.078125 461.0625 317.207031 461.511719 C 314.296875 461.914062 311.40625 462.476562 308.554688 463.191406 C 305.851562 463.894531 303.289062 465.058594 300.96875 466.625 C 298.714844 468.289062 296.894531 470.457031 295.65625 472.960938 C 294.15625 475.992188 293.441406 479.351562 293.5625 482.730469 C 293.488281 485.929688 294.109375 489.113281 295.382812 492.050781 C 296.539062 494.585938 298.273438 496.800781 300.445312 498.535156 C 302.695312 500.289062 305.269531 501.574219 308.027344 502.328125 C 311.066406 503.152344 314.203125 503.554688 317.347656 503.539062 C 321.65625 503.527344 325.933594 502.863281 330.046875 501.585938 C 334.15625 500.347656 337.882812 498.066406 340.847656 494.960938 C 340.945312 496.125 341.101562 497.277344 341.320312 498.414062 C 341.554688 499.53125 341.84375 500.628906 342.199219 501.714844 L 361.742188 501.714844 C 360.644531 499.71875 359.976562 497.503906 359.789062 495.230469 C 359.414062 492.226562 359.226562 489.207031 359.226562 486.183594 L 359.226562 486.117188 Z M 340.070312 474.613281 C 340.042969 476.066406 339.929688 477.511719 339.722656 478.949219 C 339.480469 480.824219 338.859375 482.644531 337.902344 484.277344 C 336.792969 486.164062 335.207031 487.722656 333.3125 488.8125 C 330.609375 490.25 327.578125 490.925781 324.519531 490.765625 C 323.027344 490.765625 321.535156 490.632812 320.058594 490.351562 C 318.71875 490.117188 317.433594 489.636719 316.269531 488.925781 C 315.1875 488.25 314.304688 487.300781 313.707031 486.164062 C 313.039062 484.824219 312.71875 483.332031 312.765625 481.828125 C 312.710938 480.289062 313.03125 478.761719 313.707031 477.371094 C 314.316406 476.226562 315.167969 475.230469 316.203125 474.460938 C 317.308594 473.664062 318.546875 473.046875 319.851562 472.640625 C 321.242188 472.183594 322.667969 471.824219 324.113281 471.570312 C 325.636719 471.300781 327.164062 471.066406 328.683594 470.886719 C 330.207031 470.707031 331.699219 470.472656 333.078125 470.203125 C 334.402344 469.957031 335.707031 469.621094 336.984375 469.1875 C 338.097656 468.839844 339.140625 468.269531 340.03125 467.507812 Z M 395.054688 410.839844 L 375.867188 410.839844 L 375.867188 431.921875 L 364.238281 431.921875 L 364.238281 444.757812 L 375.867188 444.757812 L 375.867188 485.988281 C 375.738281 488.925781 376.347656 491.84375 377.625 494.488281 C 378.722656 496.574219 380.375 498.320312 382.410156 499.511719 C 384.585938 500.730469 386.972656 501.527344 389.441406 501.875 C 392.238281 502.28125 395.054688 502.484375 397.878906 502.484375 C 399.832031 502.484375 401.78125 502.484375 403.742188 502.34375 C 405.554688 502.269531 407.347656 502.082031 409.140625 501.800781 L 409.140625 486.933594 C 408.203125 487.121094 407.265625 487.265625 406.304688 487.347656 C 405.3125 487.347656 404.355469 487.488281 403.199219 487.488281 C 399.953125 487.488281 397.785156 486.945312 396.714844 485.867188 C 395.632812 484.796875 395.089844 482.617188 395.089844 479.378906 L 395.089844 444.703125 L 409.140625 444.703125 L 409.140625 431.949219 L 395.089844 431.949219 Z M 474.363281 471.035156 C 473.125 468.851562 471.417969 466.964844 469.359375 465.507812 C 467.183594 463.96875 464.800781 462.75 462.265625 461.914062 C 459.582031 461.003906 456.859375 460.246094 454.097656 459.625 C 451.40625 458.996094 448.75 458.414062 446.128906 457.871094 C 443.785156 457.390625 441.457031 456.789062 439.175781 456.050781 C 437.375 455.496094 435.695312 454.585938 434.230469 453.394531 C 433.609375 452.894531 433.101562 452.257812 432.765625 451.527344 C 432.425781 450.804688 432.257812 450.003906 432.277344 449.207031 C 432.210938 447.96875 432.585938 446.75 433.347656 445.773438 C 434.058594 444.929688 434.960938 444.253906 435.984375 443.820312 C 437.082031 443.351562 438.238281 443.058594 439.417969 442.9375 C 440.6875 442.824219 441.859375 442.742188 442.941406 442.742188 C 446.027344 442.675781 449.085938 443.351562 451.867188 444.691406 C 453.171875 445.453125 454.25 446.550781 454.980469 447.875 C 455.714844 449.199219 456.089844 450.691406 456.042969 452.203125 L 474.269531 452.203125 C 474.074219 448.402344 472.9375 444.710938 470.964844 441.457031 C 469.183594 438.695312 466.808594 436.367188 464.011719 434.632812 C 461.074219 432.859375 457.84375 431.628906 454.476562 430.980469 C 450.851562 430.257812 447.164062 429.894531 443.472656 429.902344 C 439.757812 429.894531 436.050781 430.230469 432.398438 430.917969 C 428.964844 431.515625 425.660156 432.707031 422.628906 434.433594 C 419.765625 436.078125 417.363281 438.425781 415.65625 441.257812 C 413.777344 444.636719 412.859375 448.476562 413.015625 452.332031 C 412.933594 455.0625 413.609375 457.777344 414.96875 460.148438 C 416.207031 462.261719 417.917969 464.0625 419.953125 465.425781 C 422.148438 466.878906 424.535156 468.015625 427.050781 468.804688 C 429.707031 469.667969 432.445312 470.40625 435.214844 471.027344 C 440.648438 472.078125 446.007812 473.523438 451.238281 475.34375 C 455.066406 476.789062 456.980469 478.949219 456.980469 481.828125 C 457.046875 483.339844 456.625 484.832031 455.769531 486.089844 C 454.972656 487.207031 453.929688 488.136719 452.71875 488.785156 C 451.460938 489.488281 450.089844 489.996094 448.675781 490.265625 C 447.277344 490.585938 445.847656 490.746094 444.414062 490.753906 C 442.5625 490.753906 440.734375 490.53125 438.941406 490.070312 C 437.269531 489.65625 435.695312 488.945312 434.265625 487.976562 C 432.90625 487.019531 431.78125 485.769531 430.964844 484.324219 C 430.070312 482.691406 429.621094 480.855469 429.675781 478.996094 L 411.523438 478.996094 C 411.476562 482.832031 412.433594 486.625 414.292969 489.984375 C 416.152344 493.34375 418.847656 496.171875 422.121094 498.179688 C 425.304688 500.128906 428.8125 501.511719 432.472656 502.242188 C 436.378906 503.050781 440.367188 503.453125 444.355469 503.453125 C 448.289062 503.453125 452.222656 503.066406 456.078125 502.296875 C 459.691406 501.640625 463.15625 500.316406 466.28125 498.394531 C 469.492188 496.394531 472.121094 493.578125 473.875 490.230469 C 475.628906 486.878906 476.464844 483.125 476.289062 479.34375 C 476.390625 476.460938 475.722656 473.609375 474.355469 471.074219 L 474.355469 471.035156 Z M 512.460938 405.152344 L 475.976562 501.652344 L 497.332031 501.652344 L 504.894531 480.160156 L 541.078125 480.160156 L 548.371094 501.652344 L 570.390625 501.652344 L 534.320312 405.152344 Z M 510.507812 464.355469 L 523.074219 428.9375 L 523.347656 428.9375 L 535.503906 464.355469 Z M 636.636719 441.296875 C 634.027344 437.859375 630.695312 435.046875 626.863281 433.054688 C 622.425781 430.878906 617.535156 429.816406 612.597656 429.96875 C 608.488281 429.921875 604.421875 430.792969 600.695312 432.53125 C 596.988281 434.351562 593.890625 437.214844 591.789062 440.769531 L 591.515625 440.769531 L 591.515625 431.921875 L 573.269531 431.921875 L 573.269531 526.25 L 592.476562 526.25 L 592.476562 493.074219 L 592.726562 493.074219 C 594.972656 496.433594 598.078125 499.136719 601.71875 500.890625 C 605.457031 502.675781 609.539062 503.574219 613.675781 503.527344 C 618.3125 503.601562 622.914062 502.570312 627.0625 500.496094 C 630.816406 498.582031 634.09375 495.859375 636.652344 492.527344 C 639.273438 489.09375 641.226562 485.199219 642.398438 481.042969 C 643.683594 476.648438 644.339844 472.097656 644.351562 467.519531 C 644.339844 462.695312 643.683594 457.898438 642.398438 453.253906 C 641.261719 448.933594 639.308594 444.882812 636.636719 441.296875 Z M 624.367188 475.214844 C 623.898438 477.726562 622.949219 480.132812 621.589844 482.308594 C 620.21875 484.503906 618.285156 486.289062 615.988281 487.488281 C 613.695312 488.691406 611.125 489.261719 608.535156 489.140625 C 605.804688 489.195312 603.101562 488.519531 600.714844 487.1875 C 598.613281 485.988281 596.828125 484.289062 595.515625 482.242188 C 594.144531 480.074219 593.1875 477.664062 592.679688 475.148438 C 592.136719 472.492188 591.863281 469.789062 591.882812 467.078125 C 591.863281 464.261719 592.136719 461.453125 592.679688 458.695312 C 593.160156 456.152344 594.097656 453.722656 595.460938 451.527344 C 596.746094 449.453125 598.511719 447.714844 600.59375 446.46875 C 602.96875 445.105469 605.671875 444.429688 608.410156 444.515625 C 611.152344 444.410156 613.855469 445.097656 616.230469 446.46875 C 618.332031 447.753906 620.117188 449.507812 621.429688 451.582031 C 622.820312 453.796875 623.804688 456.246094 624.339844 458.808594 C 624.882812 461.53125 625.136719 464.296875 625.101562 467.078125 C 625.117188 469.816406 624.875 472.539062 624.367188 475.214844 Z M 718.894531 453.253906 C 717.730469 448.925781 715.738281 444.863281 713.027344 441.296875 C 710.417969 437.859375 707.085938 435.046875 703.257812 433.054688 C 698.84375 430.878906 693.972656 429.816406 689.054688 429.949219 C 684.953125 429.902344 680.890625 430.773438 677.171875 432.511719 C 673.464844 434.332031 670.367188 437.195312 668.265625 440.75 L 668.085938 440.75 L 668.085938 431.921875 L 649.839844 431.921875 L 649.839844 526.25 L 669.027344 526.25 L 669.027344 493.074219 L 669.296875 493.074219 C 671.542969 496.433594 674.640625 499.136719 678.28125 500.890625 C 682.015625 502.664062 686.109375 503.566406 690.238281 503.527344 C 694.894531 503.632812 699.5 502.617188 703.679688 500.5625 C 707.433594 498.648438 710.707031 495.925781 713.269531 492.59375 C 715.890625 489.160156 717.839844 485.265625 719.015625 481.105469 C 720.308594 476.714844 720.96875 472.164062 720.96875 467.582031 C 720.949219 462.730469 720.246094 457.90625 718.894531 453.253906 Z M 700.789062 475.214844 C 700.328125 477.726562 699.390625 480.140625 698.027344 482.308594 C 695.738281 485.527344 692.359375 487.796875 688.519531 488.707031 C 684.671875 489.621094 680.636719 489.101562 677.144531 487.246094 C 675.042969 486.042969 673.257812 484.34375 671.953125 482.300781 C 670.574219 480.132812 669.609375 477.730469 669.101562 475.203125 C 668.519531 472.5 668.226562 469.742188 668.238281 466.984375 C 668.226562 464.167969 668.5 461.359375 669.035156 458.601562 C 669.515625 456.058594 670.453125 453.628906 671.8125 451.433594 C 673.097656 449.367188 674.863281 447.628906 676.949219 446.375 C 679.320312 445.011719 682.035156 444.335938 684.765625 444.421875 C 687.507812 444.328125 690.21875 445.003906 692.585938 446.375 C 694.6875 447.660156 696.460938 449.414062 697.785156 451.488281 C 699.171875 453.703125 700.160156 456.152344 700.695312 458.714844 C 701.285156 461.425781 701.574219 464.203125 701.574219 466.984375 C 701.605469 469.742188 701.351562 472.5 700.835938 475.203125 L 700.789062 475.203125 Z M 700.789062 475.214844 " fill-opacity="1" fill-rule="nonzero"/></g><g clip-path="url(#da89c7fbc1)"><path fill="#25d366" d="M 479.742188 148.484375 C 461.617188 130.566406 437.617188 119.8125 412.183594 118.207031 C 386.746094 116.601562 361.59375 124.269531 341.367188 139.773438 C 321.140625 155.277344 307.210938 177.578125 302.140625 202.558594 C 297.082031 227.535156 301.230469 253.5 313.835938 275.660156 L 298.886719 330.269531 L 354.769531 315.621094 C 370.21875 324.050781 387.542969 328.460938 405.144531 328.460938 C 425.980469 328.421875 446.335938 322.21875 463.644531 310.628906 C 480.960938 299.039062 494.449219 282.585938 502.425781 263.335938 C 510.40625 244.089844 512.496094 222.917969 508.453125 202.476562 C 504.40625 182.035156 494.402344 163.253906 479.703125 148.503906 L 479.742188 148.503906 Z M 405.171875 310.648438 C 389.476562 310.648438 374.085938 306.433594 360.578125 298.4375 L 357.378906 296.484375 L 324.160156 305.175781 L 333.03125 272.917969 L 330.957031 269.617188 C 320.632812 253.164062 316.0625 233.753906 317.976562 214.421875 C 319.882812 195.097656 328.167969 176.949219 341.515625 162.84375 C 354.863281 148.726562 372.515625 139.457031 391.710938 136.46875 C 410.90625 133.484375 430.539062 136.96875 447.546875 146.363281 C 464.546875 155.757812 477.949219 170.527344 485.636719 188.371094 C 493.324219 206.203125 494.863281 226.089844 490.019531 244.894531 C 485.175781 263.703125 474.214844 280.371094 458.867188 292.269531 C 443.519531 304.171875 424.644531 310.636719 405.226562 310.648438 Z M 453.140625 245.035156 C 450.523438 243.703125 437.515625 237.339844 435.148438 236.457031 C 432.785156 235.578125 430.992188 235.152344 429.28125 237.792969 C 427.585938 240.429688 422.488281 246.351562 420.9375 248.105469 C 419.398438 249.859375 417.871094 250.058594 415.230469 248.773438 C 407.480469 245.703125 400.328125 241.3125 394.066406 235.800781 C 388.3125 230.472656 383.375 224.324219 379.414062 217.558594 C 377.894531 214.921875 379.257812 213.492188 380.570312 212.1875 C 381.875 210.882812 383.207031 209.121094 384.476562 207.582031 C 385.554688 206.25 386.4375 204.765625 387.09375 203.1875 C 387.449219 202.464844 387.609375 201.660156 387.574219 200.851562 C 387.535156 200.042969 387.300781 199.265625 386.878906 198.570312 C 386.230469 197.238281 381.011719 184.289062 378.769531 179.03125 C 376.523438 173.777344 374.449219 174.59375 372.910156 174.515625 C 371.371094 174.441406 369.625 174.515625 367.871094 174.515625 C 366.539062 174.554688 365.222656 174.863281 364.015625 175.4375 C 362.804688 176.007812 361.734375 176.816406 360.851562 177.820312 C 357.886719 180.609375 355.519531 183.976562 353.914062 187.722656 C 352.308594 191.46875 351.503906 195.503906 351.53125 199.566406 C 351.53125 212.535156 360.964844 224.960938 362.277344 226.800781 C 363.582031 228.640625 380.863281 255.171875 407.21875 266.585938 C 412.117188 268.707031 417.128906 270.554688 422.226562 272.132812 C 427.601562 273.765625 433.28125 274.109375 438.808594 273.164062 C 443.867188 272.402344 454.4375 266.789062 456.585938 260.644531 C 458.734375 254.488281 458.773438 249.210938 458.125 248.125 C 457.496094 247.007812 455.863281 246.351562 453.140625 245.035156 Z M 453.140625 245.035156 " fill-opacity="1" fill-rule="evenodd"/></g><g fill="#25d366" fill-opacity="1"><g transform="translate(91.273086, 638.24994)"><g><path d="M 25.09375 -32.21875 L 37.703125 -32.21875 L 37.703125 -23.46875 L 25.09375 -23.46875 L 25.09375 -10.671875 L 15.953125 -10.671875 L 15.953125 -23.46875 L 3.3125 -23.46875 L 3.3125 -32.21875 L 15.953125 -32.21875 L 15.953125 -45.015625 L 25.09375 -45.015625 Z M 25.09375 -32.21875 "/></g></g><g transform="translate(132.367811, 638.24994)"><g><path d="M 23.265625 0.796875 C 18.015625 0.796875 13.878906 -0.257812 10.859375 -2.375 C 7.835938 -4.5 5.816406 -7.46875 4.796875 -11.28125 L 13.171875 -15.046875 L 14.046875 -14.859375 C 15.492188 -10.617188 18.539062 -8.5 23.1875 -8.5 C 26.820312 -8.5 29.582031 -10 31.46875 -13 C 33.363281 -16.007812 34.3125 -20.523438 34.3125 -26.546875 L 33.546875 -26.8125 C 32.285156 -24.394531 30.628906 -22.566406 28.578125 -21.328125 C 26.535156 -20.085938 23.890625 -19.46875 20.640625 -19.46875 C 17.316406 -19.46875 14.390625 -20.203125 11.859375 -21.671875 C 9.335938 -23.140625 7.378906 -25.238281 5.984375 -27.96875 C 4.585938 -30.695312 3.890625 -33.90625 3.890625 -37.59375 C 3.890625 -41.425781 4.703125 -44.765625 6.328125 -47.609375 C 7.953125 -50.453125 10.257812 -52.640625 13.25 -54.171875 C 16.25 -55.710938 19.742188 -56.484375 23.734375 -56.484375 C 30.609375 -56.484375 35.984375 -54.304688 39.859375 -49.953125 C 43.734375 -45.597656 45.671875 -38.582031 45.671875 -28.90625 C 45.671875 -22.25 44.773438 -16.710938 42.984375 -12.296875 C 41.191406 -7.878906 38.625 -4.59375 35.28125 -2.4375 C 31.945312 -0.28125 27.941406 0.796875 23.265625 0.796875 Z M 24.03125 -28.484375 C 26.875 -28.484375 29.125 -29.320312 30.78125 -31 C 32.445312 -32.675781 33.28125 -34.9375 33.28125 -37.78125 C 33.28125 -40.644531 32.460938 -42.914062 30.828125 -44.59375 C 29.191406 -46.269531 26.925781 -47.109375 24.03125 -47.109375 C 21.1875 -47.109375 18.960938 -46.296875 17.359375 -44.671875 C 15.765625 -43.046875 14.96875 -40.75 14.96875 -37.78125 C 14.96875 -34.832031 15.765625 -32.546875 17.359375 -30.921875 C 18.960938 -29.296875 21.1875 -28.484375 24.03125 -28.484375 Z M 24.03125 -28.484375 "/></g></g><g transform="translate(182.717417, 638.24994)"><g><path d="M 2.9375 0 L 2.9375 -9.109375 L 16.375 -9.109375 L 16.375 -43.765625 L 15.5 -43.984375 C 13.59375 -43.078125 11.71875 -42.351562 9.875 -41.8125 C 8.039062 -41.28125 5.941406 -40.863281 3.578125 -40.5625 L 3.578125 -49.96875 C 9.742188 -51.257812 14.734375 -53.164062 18.546875 -55.6875 L 27.265625 -55.6875 L 27.265625 -9.109375 L 39.265625 -9.109375 L 39.265625 0 Z M 2.9375 0 "/></g></g><g transform="translate(223.812142, 638.24994)"><g/></g><g transform="translate(242.207649, 638.24994)"><g><path d="M 23.875 0.796875 C 19.457031 0.796875 15.71875 0.113281 12.65625 -1.25 C 9.601562 -2.625 7.300781 -4.582031 5.75 -7.125 C 4.195312 -9.664062 3.421875 -12.675781 3.421875 -16.15625 C 3.421875 -19.375 4.222656 -22.160156 5.828125 -24.515625 C 7.429688 -26.878906 9.765625 -28.738281 12.828125 -30.09375 L 12.828125 -30.890625 C 10.648438 -32.234375 8.984375 -33.832031 7.828125 -35.6875 C 6.671875 -37.539062 6.09375 -39.710938 6.09375 -42.203125 C 6.09375 -45.015625 6.785156 -47.5 8.171875 -49.65625 C 9.554688 -51.820312 11.585938 -53.5 14.265625 -54.6875 C 16.941406 -55.882812 20.144531 -56.484375 23.875 -56.484375 C 27.613281 -56.484375 30.816406 -55.882812 33.484375 -54.6875 C 36.148438 -53.5 38.179688 -51.820312 39.578125 -49.65625 C 40.972656 -47.5 41.671875 -45.015625 41.671875 -42.203125 C 41.671875 -39.710938 41.082031 -37.546875 39.90625 -35.703125 C 38.738281 -33.859375 37.050781 -32.253906 34.84375 -30.890625 L 34.84375 -30.09375 C 38.09375 -28.789062 40.476562 -26.945312 42 -24.5625 C 43.53125 -22.175781 44.296875 -19.375 44.296875 -16.15625 C 44.296875 -12.675781 43.519531 -9.664062 41.96875 -7.125 C 40.414062 -4.582031 38.113281 -2.625 35.0625 -1.25 C 32.019531 0.113281 28.289062 0.796875 23.875 0.796875 Z M 23.875 -34.015625 C 26.082031 -34.015625 27.835938 -34.625 29.140625 -35.84375 C 30.453125 -37.0625 31.109375 -38.75 31.109375 -40.90625 C 31.109375 -43.09375 30.453125 -44.804688 29.140625 -46.046875 C 27.835938 -47.285156 26.082031 -47.90625 23.875 -47.90625 C 21.613281 -47.90625 19.835938 -47.289062 18.546875 -46.0625 C 17.253906 -44.832031 16.609375 -43.113281 16.609375 -40.90625 C 16.609375 -38.71875 17.253906 -37.019531 18.546875 -35.8125 C 19.835938 -34.613281 21.613281 -34.015625 23.875 -34.015625 Z M 23.875 -8.5625 C 26.851562 -8.5625 29.15625 -9.304688 30.78125 -10.796875 C 32.40625 -12.285156 33.21875 -14.347656 33.21875 -16.984375 C 33.21875 -19.628906 32.40625 -21.691406 30.78125 -23.171875 C 29.15625 -24.660156 26.851562 -25.40625 23.875 -25.40625 C 20.882812 -25.40625 18.578125 -24.660156 16.953125 -23.171875 C 15.328125 -21.691406 14.515625 -19.628906 14.515625 -16.984375 C 14.515625 -14.347656 15.328125 -12.285156 16.953125 -10.796875 C 18.578125 -9.304688 20.882812 -8.5625 23.875 -8.5625 Z M 23.875 -8.5625 "/></g></g><g transform="translate(289.967412, 638.24994)"><g><path d="M 2.703125 -4.421875 C 2.703125 -7.492188 3.035156 -10.082031 3.703125 -12.1875 C 4.378906 -14.289062 5.476562 -16.210938 7 -17.953125 C 8.53125 -19.691406 10.691406 -21.566406 13.484375 -23.578125 L 20.90625 -28.953125 C 22.9375 -30.390625 24.515625 -31.640625 25.640625 -32.703125 C 26.773438 -33.773438 27.628906 -34.894531 28.203125 -36.0625 C 28.773438 -37.226562 29.0625 -38.5625 29.0625 -40.0625 C 29.0625 -42.320312 28.375 -44.066406 27 -45.296875 C 25.632812 -46.535156 23.578125 -47.15625 20.828125 -47.15625 C 18.191406 -47.15625 15.84375 -46.523438 13.78125 -45.265625 C 11.726562 -44.003906 10.03125 -42.285156 8.6875 -40.109375 L 7.953125 -39.921875 L 1.90625 -46.6875 C 3.882812 -49.632812 6.46875 -52.003906 9.65625 -53.796875 C 12.84375 -55.585938 16.707031 -56.484375 21.25 -56.484375 C 25.414062 -56.484375 28.898438 -55.796875 31.703125 -54.421875 C 34.515625 -53.054688 36.597656 -51.1875 37.953125 -48.8125 C 39.304688 -46.4375 39.984375 -43.710938 39.984375 -40.640625 C 39.984375 -37.992188 39.429688 -35.578125 38.328125 -33.390625 C 37.222656 -31.210938 35.691406 -29.195312 33.734375 -27.34375 C 31.785156 -25.488281 29.285156 -23.492188 26.234375 -21.359375 L 19.65625 -16.765625 C 17.675781 -15.335938 16.289062 -14.070312 15.5 -12.96875 C 14.71875 -11.863281 14.328125 -10.613281 14.328125 -9.21875 L 39.453125 -9.21875 L 39.453125 0 L 2.703125 0 Z M 2.703125 -4.421875 "/></g></g><g transform="translate(333.423465, 638.24994)"><g><path d="M 23.875 0.796875 C 19.457031 0.796875 15.71875 0.113281 12.65625 -1.25 C 9.601562 -2.625 7.300781 -4.582031 5.75 -7.125 C 4.195312 -9.664062 3.421875 -12.675781 3.421875 -16.15625 C 3.421875 -19.375 4.222656 -22.160156 5.828125 -24.515625 C 7.429688 -26.878906 9.765625 -28.738281 12.828125 -30.09375 L 12.828125 -30.890625 C 10.648438 -32.234375 8.984375 -33.832031 7.828125 -35.6875 C 6.671875 -37.539062 6.09375 -39.710938 6.09375 -42.203125 C 6.09375 -45.015625 6.785156 -47.5 8.171875 -49.65625 C 9.554688 -51.820312 11.585938 -53.5 14.265625 -54.6875 C 16.941406 -55.882812 20.144531 -56.484375 23.875 -56.484375 C 27.613281 -56.484375 30.816406 -55.882812 33.484375 -54.6875 C 36.148438 -53.5 38.179688 -51.820312 39.578125 -49.65625 C 40.972656 -47.5 41.671875 -45.015625 41.671875 -42.203125 C 41.671875 -39.710938 41.082031 -37.546875 39.90625 -35.703125 C 38.738281 -33.859375 37.050781 -32.253906 34.84375 -30.890625 L 34.84375 -30.09375 C 38.09375 -28.789062 40.476562 -26.945312 42 -24.5625 C 43.53125 -22.175781 44.296875 -19.375 44.296875 -16.15625 C 44.296875 -12.675781 43.519531 -9.664062 41.96875 -7.125 C 40.414062 -4.582031 38.113281 -2.625 35.0625 -1.25 C 32.019531 0.113281 28.289062 0.796875 23.875 0.796875 Z M 23.875 -34.015625 C 26.082031 -34.015625 27.835938 -34.625 29.140625 -35.84375 C 30.453125 -37.0625 31.109375 -38.75 31.109375 -40.90625 C 31.109375 -43.09375 30.453125 -44.804688 29.140625 -46.046875 C 27.835938 -47.285156 26.082031 -47.90625 23.875 -47.90625 C 21.613281 -47.90625 19.835938 -47.289062 18.546875 -46.0625 C 17.253906 -44.832031 16.609375 -43.113281 16.609375 -40.90625 C 16.609375 -38.71875 17.253906 -37.019531 18.546875 -35.8125 C 19.835938 -34.613281 21.613281 -34.015625 23.875 -34.015625 Z M 23.875 -8.5625 C 26.851562 -8.5625 29.15625 -9.304688 30.78125 -10.796875 C 32.40625 -12.285156 33.21875 -14.347656 33.21875 -16.984375 C 33.21875 -19.628906 32.40625 -21.691406 30.78125 -23.171875 C 29.15625 -24.660156 26.851562 -25.40625 23.875 -25.40625 C 20.882812 -25.40625 18.578125 -24.660156 16.953125 -23.171875 C 15.328125 -21.691406 14.515625 -19.628906 14.515625 -16.984375 C 14.515625 -14.347656 15.328125 -12.285156 16.953125 -10.796875 C 18.578125 -9.304688 20.882812 -8.5625 23.875 -8.5625 Z M 23.875 -8.5625 "/></g></g><g transform="translate(381.183228, 638.24994)"><g><path d="M 23.875 0.796875 C 19.457031 0.796875 15.71875 0.113281 12.65625 -1.25 C 9.601562 -2.625 7.300781 -4.582031 5.75 -7.125 C 4.195312 -9.664062 3.421875 -12.675781 3.421875 -16.15625 C 3.421875 -19.375 4.222656 -22.160156 5.828125 -24.515625 C 7.429688 -26.878906 9.765625 -28.738281 12.828125 -30.09375 L 12.828125 -30.890625 C 10.648438 -32.234375 8.984375 -33.832031 7.828125 -35.6875 C 6.671875 -37.539062 6.09375 -39.710938 6.09375 -42.203125 C 6.09375 -45.015625 6.785156 -47.5 8.171875 -49.65625 C 9.554688 -51.820312 11.585938 -53.5 14.265625 -54.6875 C 16.941406 -55.882812 20.144531 -56.484375 23.875 -56.484375 C 27.613281 -56.484375 30.816406 -55.882812 33.484375 -54.6875 C 36.148438 -53.5 38.179688 -51.820312 39.578125 -49.65625 C 40.972656 -47.5 41.671875 -45.015625 41.671875 -42.203125 C 41.671875 -39.710938 41.082031 -37.546875 39.90625 -35.703125 C 38.738281 -33.859375 37.050781 -32.253906 34.84375 -30.890625 L 34.84375 -30.09375 C 38.09375 -28.789062 40.476562 -26.945312 42 -24.5625 C 43.53125 -22.175781 44.296875 -19.375 44.296875 -16.15625 C 44.296875 -12.675781 43.519531 -9.664062 41.96875 -7.125 C 40.414062 -4.582031 38.113281 -2.625 35.0625 -1.25 C 32.019531 0.113281 28.289062 0.796875 23.875 0.796875 Z M 23.875 -34.015625 C 26.082031 -34.015625 27.835938 -34.625 29.140625 -35.84375 C 30.453125 -37.0625 31.109375 -38.75 31.109375 -40.90625 C 31.109375 -43.09375 30.453125 -44.804688 29.140625 -46.046875 C 27.835938 -47.285156 26.082031 -47.90625 23.875 -47.90625 C 21.613281 -47.90625 19.835938 -47.289062 18.546875 -46.0625 C 17.253906 -44.832031 16.609375 -43.113281 16.609375 -40.90625 C 16.609375 -38.71875 17.253906 -37.019531 18.546875 -35.8125 C 19.835938 -34.613281 21.613281 -34.015625 23.875 -34.015625 Z M 23.875 -8.5625 C 26.851562 -8.5625 29.15625 -9.304688 30.78125 -10.796875 C 32.40625 -12.285156 33.21875 -14.347656 33.21875 -16.984375 C 33.21875 -19.628906 32.40625 -21.691406 30.78125 -23.171875 C 29.15625 -24.660156 26.851562 -25.40625 23.875 -25.40625 C 20.882812 -25.40625 18.578125 -24.660156 16.953125 -23.171875 C 15.328125 -21.691406 14.515625 -19.628906 14.515625 -16.984375 C 14.515625 -14.347656 15.328125 -12.285156 16.953125 -10.796875 C 18.578125 -9.304688 20.882812 -8.5625 23.875 -8.5625 Z M 23.875 -8.5625 "/></g></g><g transform="translate(428.942992, 638.24994)"><g><path d="M 23.875 0.796875 C 19.457031 0.796875 15.71875 0.113281 12.65625 -1.25 C 9.601562 -2.625 7.300781 -4.582031 5.75 -7.125 C 4.195312 -9.664062 3.421875 -12.675781 3.421875 -16.15625 C 3.421875 -19.375 4.222656 -22.160156 5.828125 -24.515625 C 7.429688 -26.878906 9.765625 -28.738281 12.828125 -30.09375 L 12.828125 -30.890625 C 10.648438 -32.234375 8.984375 -33.832031 7.828125 -35.6875 C 6.671875 -37.539062 6.09375 -39.710938 6.09375 -42.203125 C 6.09375 -45.015625 6.785156 -47.5 8.171875 -49.65625 C 9.554688 -51.820312 11.585938 -53.5 14.265625 -54.6875 C 16.941406 -55.882812 20.144531 -56.484375 23.875 -56.484375 C 27.613281 -56.484375 30.816406 -55.882812 33.484375 -54.6875 C 36.148438 -53.5 38.179688 -51.820312 39.578125 -49.65625 C 40.972656 -47.5 41.671875 -45.015625 41.671875 -42.203125 C 41.671875 -39.710938 41.082031 -37.546875 39.90625 -35.703125 C 38.738281 -33.859375 37.050781 -32.253906 34.84375 -30.890625 L 34.84375 -30.09375 C 38.09375 -28.789062 40.476562 -26.945312 42 -24.5625 C 43.53125 -22.175781 44.296875 -19.375 44.296875 -16.15625 C 44.296875 -12.675781 43.519531 -9.664062 41.96875 -7.125 C 40.414062 -4.582031 38.113281 -2.625 35.0625 -1.25 C 32.019531 0.113281 28.289062 0.796875 23.875 0.796875 Z M 23.875 -34.015625 C 26.082031 -34.015625 27.835938 -34.625 29.140625 -35.84375 C 30.453125 -37.0625 31.109375 -38.75 31.109375 -40.90625 C 31.109375 -43.09375 30.453125 -44.804688 29.140625 -46.046875 C 27.835938 -47.285156 26.082031 -47.90625 23.875 -47.90625 C 21.613281 -47.90625 19.835938 -47.289062 18.546875 -46.0625 C 17.253906 -44.832031 16.609375 -43.113281 16.609375 -40.90625 C 16.609375 -38.71875 17.253906 -37.019531 18.546875 -35.8125 C 19.835938 -34.613281 21.613281 -34.015625 23.875 -34.015625 Z M 23.875 -8.5625 C 26.851562 -8.5625 29.15625 -9.304688 30.78125 -10.796875 C 32.40625 -12.285156 33.21875 -14.347656 33.21875 -16.984375 C 33.21875 -19.628906 32.40625 -21.691406 30.78125 -23.171875 C 29.15625 -24.660156 26.851562 -25.40625 23.875 -25.40625 C 20.882812 -25.40625 18.578125 -24.660156 16.953125 -23.171875 C 15.328125 -21.691406 14.515625 -19.628906 14.515625 -16.984375 C 14.515625 -14.347656 15.328125 -12.285156 16.953125 -10.796875 C 18.578125 -9.304688 20.882812 -8.5625 23.875 -8.5625 Z M 23.875 -8.5625 "/></g></g><g transform="translate(476.702755, 638.24994)"><g><path d="M 23.265625 0.796875 C 18.015625 0.796875 13.878906 -0.257812 10.859375 -2.375 C 7.835938 -4.5 5.816406 -7.46875 4.796875 -11.28125 L 13.171875 -15.046875 L 14.046875 -14.859375 C 15.492188 -10.617188 18.539062 -8.5 23.1875 -8.5 C 26.820312 -8.5 29.582031 -10 31.46875 -13 C 33.363281 -16.007812 34.3125 -20.523438 34.3125 -26.546875 L 33.546875 -26.8125 C 32.285156 -24.394531 30.628906 -22.566406 28.578125 -21.328125 C 26.535156 -20.085938 23.890625 -19.46875 20.640625 -19.46875 C 17.316406 -19.46875 14.390625 -20.203125 11.859375 -21.671875 C 9.335938 -23.140625 7.378906 -25.238281 5.984375 -27.96875 C 4.585938 -30.695312 3.890625 -33.90625 3.890625 -37.59375 C 3.890625 -41.425781 4.703125 -44.765625 6.328125 -47.609375 C 7.953125 -50.453125 10.257812 -52.640625 13.25 -54.171875 C 16.25 -55.710938 19.742188 -56.484375 23.734375 -56.484375 C 30.609375 -56.484375 35.984375 -54.304688 39.859375 -49.953125 C 43.734375 -45.597656 45.671875 -38.582031 45.671875 -28.90625 C 45.671875 -22.25 44.773438 -16.710938 42.984375 -12.296875 C 41.191406 -7.878906 38.625 -4.59375 35.28125 -2.4375 C 31.945312 -0.28125 27.941406 0.796875 23.265625 0.796875 Z M 24.03125 -28.484375 C 26.875 -28.484375 29.125 -29.320312 30.78125 -31 C 32.445312 -32.675781 33.28125 -34.9375 33.28125 -37.78125 C 33.28125 -40.644531 32.460938 -42.914062 30.828125 -44.59375 C 29.191406 -46.269531 26.925781 -47.109375 24.03125 -47.109375 C 21.1875 -47.109375 18.960938 -46.296875 17.359375 -44.671875 C 15.765625 -43.046875 14.96875 -40.75 14.96875 -37.78125 C 14.96875 -34.832031 15.765625 -32.546875 17.359375 -30.921875 C 18.960938 -29.296875 21.1875 -28.484375 24.03125 -28.484375 Z M 24.03125 -28.484375 "/></g></g><g transform="translate(527.052362, 638.24994)"><g><path d="M 23.875 0.796875 C 19.457031 0.796875 15.71875 0.113281 12.65625 -1.25 C 9.601562 -2.625 7.300781 -4.582031 5.75 -7.125 C 4.195312 -9.664062 3.421875 -12.675781 3.421875 -16.15625 C 3.421875 -19.375 4.222656 -22.160156 5.828125 -24.515625 C 7.429688 -26.878906 9.765625 -28.738281 12.828125 -30.09375 L 12.828125 -30.890625 C 10.648438 -32.234375 8.984375 -33.832031 7.828125 -35.6875 C 6.671875 -37.539062 6.09375 -39.710938 6.09375 -42.203125 C 6.09375 -45.015625 6.785156 -47.5 8.171875 -49.65625 C 9.554688 -51.820312 11.585938 -53.5 14.265625 -54.6875 C 16.941406 -55.882812 20.144531 -56.484375 23.875 -56.484375 C 27.613281 -56.484375 30.816406 -55.882812 33.484375 -54.6875 C 36.148438 -53.5 38.179688 -51.820312 39.578125 -49.65625 C 40.972656 -47.5 41.671875 -45.015625 41.671875 -42.203125 C 41.671875 -39.710938 41.082031 -37.546875 39.90625 -35.703125 C 38.738281 -33.859375 37.050781 -32.253906 34.84375 -30.890625 L 34.84375 -30.09375 C 38.09375 -28.789062 40.476562 -26.945312 42 -24.5625 C 43.53125 -22.175781 44.296875 -19.375 44.296875 -16.15625 C 44.296875 -12.675781 43.519531 -9.664062 41.96875 -7.125 C 40.414062 -4.582031 38.113281 -2.625 35.0625 -1.25 C 32.019531 0.113281 28.289062 0.796875 23.875 0.796875 Z M 23.875 -34.015625 C 26.082031 -34.015625 27.835938 -34.625 29.140625 -35.84375 C 30.453125 -37.0625 31.109375 -38.75 31.109375 -40.90625 C 31.109375 -43.09375 30.453125 -44.804688 29.140625 -46.046875 C 27.835938 -47.285156 26.082031 -47.90625 23.875 -47.90625 C 21.613281 -47.90625 19.835938 -47.289062 18.546875 -46.0625 C 17.253906 -44.832031 16.609375 -43.113281 16.609375 -40.90625 C 16.609375 -38.71875 17.253906 -37.019531 18.546875 -35.8125 C 19.835938 -34.613281 21.613281 -34.015625 23.875 -34.015625 Z M 23.875 -8.5625 C 26.851562 -8.5625 29.15625 -9.304688 30.78125 -10.796875 C 32.40625 -12.285156 33.21875 -14.347656 33.21875 -16.984375 C 33.21875 -19.628906 32.40625 -21.691406 30.78125 -23.171875 C 29.15625 -24.660156 26.851562 -25.40625 23.875 -25.40625 C 20.882812 -25.40625 18.578125 -24.660156 16.953125 -23.171875 C 15.328125 -21.691406 14.515625 -19.628906 14.515625 -16.984375 C 14.515625 -14.347656 15.328125 -12.285156 16.953125 -10.796875 C 18.578125 -9.304688 20.882812 -8.5625 23.875 -8.5625 Z M 23.875 -8.5625 "/></g></g><g transform="translate(574.812125, 638.24994)"><g><path d="M 23.1875 0.796875 C 17.632812 0.796875 13.222656 -0.367188 9.953125 -2.703125 C 6.691406 -5.035156 4.566406 -8.300781 3.578125 -12.5 L 11.921875 -16.1875 L 12.796875 -16.03125 C 13.609375 -13.570312 14.820312 -11.71875 16.4375 -10.46875 C 18.050781 -9.226562 20.265625 -8.609375 23.078125 -8.609375 C 25.972656 -8.609375 28.207031 -9.429688 29.78125 -11.078125 C 31.351562 -12.734375 32.140625 -15.195312 32.140625 -18.46875 C 32.140625 -21.71875 31.359375 -24.179688 29.796875 -25.859375 C 28.234375 -27.535156 26.109375 -28.375 23.421875 -28.375 C 21.367188 -28.375 19.644531 -27.925781 18.25 -27.03125 C 16.851562 -26.144531 15.679688 -24.828125 14.734375 -23.078125 L 5.640625 -23.734375 L 6.78125 -55.6875 L 39.921875 -55.6875 L 39.921875 -46.421875 L 16.03125 -46.421875 L 15.5 -32.21875 L 16.296875 -32.0625 C 17.597656 -33.769531 19.148438 -35.0625 20.953125 -35.9375 C 22.753906 -36.8125 24.921875 -37.25 27.453125 -37.25 C 30.628906 -37.25 33.40625 -36.539062 35.78125 -35.125 C 38.15625 -33.71875 39.988281 -31.625 41.28125 -28.84375 C 42.582031 -26.070312 43.234375 -22.675781 43.234375 -18.65625 C 43.234375 -14.570312 42.453125 -11.078125 40.890625 -8.171875 C 39.328125 -5.265625 37.046875 -3.039062 34.046875 -1.5 C 31.054688 0.03125 27.4375 0.796875 23.1875 0.796875 Z M 23.1875 0.796875 "/></g></g><g transform="translate(621.733998, 638.24994)"><g><path d="M 37.8125 0 L 27.265625 0 L 27.265625 -12.109375 L 1.90625 -12.109375 L 1.90625 -20.984375 L 23.734375 -55.6875 L 37.8125 -55.6875 L 37.8125 -20.984375 L 46.390625 -20.984375 L 46.390625 -12.109375 L 37.8125 -12.109375 Z M 13.171875 -21.78125 L 13.515625 -20.984375 L 27.265625 -20.984375 L 27.265625 -42.546875 L 26.390625 -42.6875 Z M 13.171875 -21.78125 "/></g></g><g transform="translate(670.255479, 638.24994)"><g><path d="M 37.8125 0 L 27.265625 0 L 27.265625 -12.109375 L 1.90625 -12.109375 L 1.90625 -20.984375 L 23.734375 -55.6875 L 37.8125 -55.6875 L 37.8125 -20.984375 L 46.390625 -20.984375 L 46.390625 -12.109375 L 37.8125 -12.109375 Z M 13.171875 -21.78125 L 13.515625 -20.984375 L 27.265625 -20.984375 L 27.265625 -42.546875 L 26.390625 -42.6875 Z M 13.171875 -21.78125 "/></g></g></g></svg>